M48
; DRILL file {KiCad (5.1.4)-1} date 27.10.2019 01:37:14
; FORMAT={-:-/ absolute / inch / decimal}
; #@! TF.CreationDate,2019-10-27T01:37:14+02:00
; #@! TF.GenerationSoftware,Kicad,Pcbnew,(5.1.4)-1
FMAT,2
INCH
T1C0.0394
%
G90
G05
T1
X5.5118Y-3.878
X5.5118Y-3.978
X5.6118Y-3.878
X5.6118Y-3.978
X5.7118Y-3.878
X5.7118Y-3.978
X5.8118Y-3.878
X5.8118Y-3.978
X5.9118Y-3.878
X5.9118Y-3.978
X6.0118Y-3.878
X6.0118Y-3.978
X6.1118Y-3.878
X6.1118Y-3.978
X5.4035Y-3.5236
X5.4724Y-3.4055
X5.5413Y-3.5236
X5.6102Y-3.4055
X5.6791Y-3.5236
X5.748Y-3.4055
X5.8169Y-3.5236
X5.8858Y-3.4055
X5.9547Y-3.5236
X6.0236Y-3.4055
X6.0925Y-3.5236
X6.1614Y-3.4055
X6.2303Y-3.5236
T0
M30
