G04 #@! TF.GenerationSoftware,KiCad,Pcbnew,(5.1.4)-1*
G04 #@! TF.CreationDate,2019-10-27T01:38:00+02:00*
G04 #@! TF.ProjectId,SIOSocket,53494f53-6f63-46b6-9574-2e6b69636164,rev?*
G04 #@! TF.SameCoordinates,Original*
G04 #@! TF.FileFunction,Legend,Bot*
G04 #@! TF.FilePolarity,Positive*
%FSLAX46Y46*%
G04 Gerber Fmt 4.6, Leading zero omitted, Abs format (unit mm)*
G04 Created by KiCad (PCBNEW (5.1.4)-1) date 2019-10-27 01:38:00*
%MOMM*%
%LPD*%
G04 APERTURE LIST*
%ADD10C,0.125000*%
%ADD11C,0.120000*%
%ADD12C,0.010000*%
%ADD13C,0.150000*%
%ADD14C,0.500000*%
G04 APERTURE END LIST*
D10*
X169304464Y-99270833D02*
X169018750Y-99270833D01*
X169361607Y-99413690D02*
X169161607Y-98913690D01*
X168961607Y-99413690D01*
X168847321Y-98913690D02*
X168504464Y-98913690D01*
X168675892Y-99413690D02*
X168675892Y-98913690D01*
X168333035Y-99270833D02*
X168047321Y-99270833D01*
X168390178Y-99413690D02*
X168190178Y-98913690D01*
X167990178Y-99413690D01*
X167447321Y-99413690D02*
X167647321Y-99175595D01*
X167790178Y-99413690D02*
X167790178Y-98913690D01*
X167561607Y-98913690D01*
X167504464Y-98937500D01*
X167475892Y-98961309D01*
X167447321Y-99008928D01*
X167447321Y-99080357D01*
X167475892Y-99127976D01*
X167504464Y-99151785D01*
X167561607Y-99175595D01*
X167790178Y-99175595D01*
X167190178Y-99413690D02*
X167190178Y-98913690D01*
X166475892Y-99389880D02*
X166390178Y-99413690D01*
X166247321Y-99413690D01*
X166190178Y-99389880D01*
X166161607Y-99366071D01*
X166133035Y-99318452D01*
X166133035Y-99270833D01*
X166161607Y-99223214D01*
X166190178Y-99199404D01*
X166247321Y-99175595D01*
X166361607Y-99151785D01*
X166418750Y-99127976D01*
X166447321Y-99104166D01*
X166475892Y-99056547D01*
X166475892Y-99008928D01*
X166447321Y-98961309D01*
X166418750Y-98937500D01*
X166361607Y-98913690D01*
X166218750Y-98913690D01*
X166133035Y-98937500D01*
X165875892Y-99413690D02*
X165875892Y-98913690D01*
X165475892Y-98913690D02*
X165361607Y-98913690D01*
X165304464Y-98937500D01*
X165247321Y-98985119D01*
X165218750Y-99080357D01*
X165218750Y-99247023D01*
X165247321Y-99342261D01*
X165304464Y-99389880D01*
X165361607Y-99413690D01*
X165475892Y-99413690D01*
X165533035Y-99389880D01*
X165590178Y-99342261D01*
X165618750Y-99247023D01*
X165618750Y-99080357D01*
X165590178Y-98985119D01*
X165533035Y-98937500D01*
X165475892Y-98913690D01*
X164161607Y-99366071D02*
X164190178Y-99389880D01*
X164275892Y-99413690D01*
X164333035Y-99413690D01*
X164418750Y-99389880D01*
X164475892Y-99342261D01*
X164504464Y-99294642D01*
X164533035Y-99199404D01*
X164533035Y-99127976D01*
X164504464Y-99032738D01*
X164475892Y-98985119D01*
X164418750Y-98937500D01*
X164333035Y-98913690D01*
X164275892Y-98913690D01*
X164190178Y-98937500D01*
X164161607Y-98961309D01*
X163818750Y-99413690D02*
X163875892Y-99389880D01*
X163904464Y-99366071D01*
X163933035Y-99318452D01*
X163933035Y-99175595D01*
X163904464Y-99127976D01*
X163875892Y-99104166D01*
X163818750Y-99080357D01*
X163733035Y-99080357D01*
X163675892Y-99104166D01*
X163647321Y-99127976D01*
X163618750Y-99175595D01*
X163618750Y-99318452D01*
X163647321Y-99366071D01*
X163675892Y-99389880D01*
X163733035Y-99413690D01*
X163818750Y-99413690D01*
X163361607Y-99080357D02*
X163361607Y-99413690D01*
X163361607Y-99127976D02*
X163333035Y-99104166D01*
X163275892Y-99080357D01*
X163190178Y-99080357D01*
X163133035Y-99104166D01*
X163104464Y-99151785D01*
X163104464Y-99413690D01*
X162818750Y-99080357D02*
X162818750Y-99413690D01*
X162818750Y-99127976D02*
X162790178Y-99104166D01*
X162733035Y-99080357D01*
X162647321Y-99080357D01*
X162590178Y-99104166D01*
X162561607Y-99151785D01*
X162561607Y-99413690D01*
X162047321Y-99389880D02*
X162104464Y-99413690D01*
X162218750Y-99413690D01*
X162275892Y-99389880D01*
X162304464Y-99342261D01*
X162304464Y-99151785D01*
X162275892Y-99104166D01*
X162218750Y-99080357D01*
X162104464Y-99080357D01*
X162047321Y-99104166D01*
X162018750Y-99151785D01*
X162018750Y-99199404D01*
X162304464Y-99247023D01*
X161504464Y-99389880D02*
X161561607Y-99413690D01*
X161675892Y-99413690D01*
X161733035Y-99389880D01*
X161761607Y-99366071D01*
X161790178Y-99318452D01*
X161790178Y-99175595D01*
X161761607Y-99127976D01*
X161733035Y-99104166D01*
X161675892Y-99080357D01*
X161561607Y-99080357D01*
X161504464Y-99104166D01*
X161333035Y-99080357D02*
X161104464Y-99080357D01*
X161247321Y-98913690D02*
X161247321Y-99342261D01*
X161218750Y-99389880D01*
X161161607Y-99413690D01*
X161104464Y-99413690D01*
X160818750Y-99413690D02*
X160875892Y-99389880D01*
X160904464Y-99366071D01*
X160933035Y-99318452D01*
X160933035Y-99175595D01*
X160904464Y-99127976D01*
X160875892Y-99104166D01*
X160818750Y-99080357D01*
X160733035Y-99080357D01*
X160675892Y-99104166D01*
X160647321Y-99127976D01*
X160618750Y-99175595D01*
X160618750Y-99318452D01*
X160647321Y-99366071D01*
X160675892Y-99389880D01*
X160733035Y-99413690D01*
X160818750Y-99413690D01*
X160361607Y-99413690D02*
X160361607Y-99080357D01*
X160361607Y-99175595D02*
X160333035Y-99127976D01*
X160304464Y-99104166D01*
X160247321Y-99080357D01*
X160190178Y-99080357D01*
X159590178Y-99080357D02*
X159447321Y-99413690D01*
X159304464Y-99080357D01*
X158761607Y-99413690D02*
X159104464Y-99413690D01*
X158933035Y-99413690D02*
X158933035Y-98913690D01*
X158990178Y-98985119D01*
X159047321Y-99032738D01*
X159104464Y-99056547D01*
X158504464Y-99366071D02*
X158475892Y-99389880D01*
X158504464Y-99413690D01*
X158533035Y-99389880D01*
X158504464Y-99366071D01*
X158504464Y-99413690D01*
X158104464Y-98913690D02*
X158047321Y-98913690D01*
X157990178Y-98937500D01*
X157961607Y-98961309D01*
X157933035Y-99008928D01*
X157904464Y-99104166D01*
X157904464Y-99223214D01*
X157933035Y-99318452D01*
X157961607Y-99366071D01*
X157990178Y-99389880D01*
X158047321Y-99413690D01*
X158104464Y-99413690D01*
X158161607Y-99389880D01*
X158190178Y-99366071D01*
X158218750Y-99318452D01*
X158247321Y-99223214D01*
X158247321Y-99104166D01*
X158218750Y-99008928D01*
X158190178Y-98961309D01*
X158161607Y-98937500D01*
X158104464Y-98913690D01*
X169275892Y-100288690D02*
X169275892Y-99788690D01*
X169047321Y-99788690D01*
X168990178Y-99812500D01*
X168961607Y-99836309D01*
X168933035Y-99883928D01*
X168933035Y-99955357D01*
X168961607Y-100002976D01*
X168990178Y-100026785D01*
X169047321Y-100050595D01*
X169275892Y-100050595D01*
X168418750Y-100288690D02*
X168418750Y-100026785D01*
X168447321Y-99979166D01*
X168504464Y-99955357D01*
X168618750Y-99955357D01*
X168675892Y-99979166D01*
X168418750Y-100264880D02*
X168475892Y-100288690D01*
X168618750Y-100288690D01*
X168675892Y-100264880D01*
X168704464Y-100217261D01*
X168704464Y-100169642D01*
X168675892Y-100122023D01*
X168618750Y-100098214D01*
X168475892Y-100098214D01*
X168418750Y-100074404D01*
X168190178Y-99955357D02*
X168075892Y-100288690D01*
X167961607Y-100050595D01*
X167847321Y-100288690D01*
X167733035Y-99955357D01*
X167275892Y-100264880D02*
X167333035Y-100288690D01*
X167447321Y-100288690D01*
X167504464Y-100264880D01*
X167533035Y-100217261D01*
X167533035Y-100026785D01*
X167504464Y-99979166D01*
X167447321Y-99955357D01*
X167333035Y-99955357D01*
X167275892Y-99979166D01*
X167247321Y-100026785D01*
X167247321Y-100074404D01*
X167533035Y-100122023D01*
X166904464Y-100288690D02*
X166961607Y-100264880D01*
X166990178Y-100217261D01*
X166990178Y-99788690D01*
X167075892Y-100050595D02*
X166904464Y-99955357D01*
X166218750Y-100288690D02*
X166218750Y-99788690D01*
X166018750Y-100145833D01*
X165818750Y-99788690D01*
X165818750Y-100288690D01*
X165275892Y-100288690D02*
X165275892Y-100026785D01*
X165304464Y-99979166D01*
X165361607Y-99955357D01*
X165475892Y-99955357D01*
X165533035Y-99979166D01*
X165275892Y-100264880D02*
X165333035Y-100288690D01*
X165475892Y-100288690D01*
X165533035Y-100264880D01*
X165561607Y-100217261D01*
X165561607Y-100169642D01*
X165533035Y-100122023D01*
X165475892Y-100098214D01*
X165333035Y-100098214D01*
X165275892Y-100074404D01*
X164990178Y-99955357D02*
X164990178Y-100288690D01*
X164990178Y-100002976D02*
X164961607Y-99979166D01*
X164904464Y-99955357D01*
X164818750Y-99955357D01*
X164761607Y-99979166D01*
X164733035Y-100026785D01*
X164733035Y-100288690D01*
X164190178Y-100288690D02*
X164190178Y-99788690D01*
X164190178Y-100264880D02*
X164247321Y-100288690D01*
X164361607Y-100288690D01*
X164418750Y-100264880D01*
X164447321Y-100241071D01*
X164475892Y-100193452D01*
X164475892Y-100050595D01*
X164447321Y-100002976D01*
X164418750Y-99979166D01*
X164361607Y-99955357D01*
X164247321Y-99955357D01*
X164190178Y-99979166D01*
X163675892Y-100264880D02*
X163733035Y-100288690D01*
X163847321Y-100288690D01*
X163904464Y-100264880D01*
X163933035Y-100217261D01*
X163933035Y-100026785D01*
X163904464Y-99979166D01*
X163847321Y-99955357D01*
X163733035Y-99955357D01*
X163675892Y-99979166D01*
X163647321Y-100026785D01*
X163647321Y-100074404D01*
X163933035Y-100122023D01*
X163418750Y-100264880D02*
X163361607Y-100288690D01*
X163247321Y-100288690D01*
X163190178Y-100264880D01*
X163161607Y-100217261D01*
X163161607Y-100193452D01*
X163190178Y-100145833D01*
X163247321Y-100122023D01*
X163333035Y-100122023D01*
X163390178Y-100098214D01*
X163418750Y-100050595D01*
X163418750Y-100026785D01*
X163390178Y-99979166D01*
X163333035Y-99955357D01*
X163247321Y-99955357D01*
X163190178Y-99979166D01*
X162475892Y-99836309D02*
X162447321Y-99812500D01*
X162390178Y-99788690D01*
X162247321Y-99788690D01*
X162190178Y-99812500D01*
X162161607Y-99836309D01*
X162133035Y-99883928D01*
X162133035Y-99931547D01*
X162161607Y-100002976D01*
X162504464Y-100288690D01*
X162133035Y-100288690D01*
X161761607Y-99788690D02*
X161704464Y-99788690D01*
X161647321Y-99812500D01*
X161618750Y-99836309D01*
X161590178Y-99883928D01*
X161561607Y-99979166D01*
X161561607Y-100098214D01*
X161590178Y-100193452D01*
X161618750Y-100241071D01*
X161647321Y-100264880D01*
X161704464Y-100288690D01*
X161761607Y-100288690D01*
X161818750Y-100264880D01*
X161847321Y-100241071D01*
X161875892Y-100193452D01*
X161904464Y-100098214D01*
X161904464Y-99979166D01*
X161875892Y-99883928D01*
X161847321Y-99836309D01*
X161818750Y-99812500D01*
X161761607Y-99788690D01*
X160990178Y-100288690D02*
X161333035Y-100288690D01*
X161161607Y-100288690D02*
X161161607Y-99788690D01*
X161218750Y-99860119D01*
X161275892Y-99907738D01*
X161333035Y-99931547D01*
X160704464Y-100288690D02*
X160590178Y-100288690D01*
X160533035Y-100264880D01*
X160504464Y-100241071D01*
X160447321Y-100169642D01*
X160418750Y-100074404D01*
X160418750Y-99883928D01*
X160447321Y-99836309D01*
X160475892Y-99812500D01*
X160533035Y-99788690D01*
X160647321Y-99788690D01*
X160704464Y-99812500D01*
X160733035Y-99836309D01*
X160761607Y-99883928D01*
X160761607Y-100002976D01*
X160733035Y-100050595D01*
X160704464Y-100074404D01*
X160647321Y-100098214D01*
X160533035Y-100098214D01*
X160475892Y-100074404D01*
X160447321Y-100050595D01*
X160418750Y-100002976D01*
X168933035Y-101116071D02*
X168961607Y-101139880D01*
X169047321Y-101163690D01*
X169104464Y-101163690D01*
X169190178Y-101139880D01*
X169247321Y-101092261D01*
X169275892Y-101044642D01*
X169304464Y-100949404D01*
X169304464Y-100877976D01*
X169275892Y-100782738D01*
X169247321Y-100735119D01*
X169190178Y-100687500D01*
X169104464Y-100663690D01*
X169047321Y-100663690D01*
X168961607Y-100687500D01*
X168933035Y-100711309D01*
X168675892Y-101163690D02*
X168675892Y-100830357D01*
X168675892Y-100925595D02*
X168647321Y-100877976D01*
X168618750Y-100854166D01*
X168561607Y-100830357D01*
X168504464Y-100830357D01*
X168075892Y-101139880D02*
X168133035Y-101163690D01*
X168247321Y-101163690D01*
X168304464Y-101139880D01*
X168333035Y-101092261D01*
X168333035Y-100901785D01*
X168304464Y-100854166D01*
X168247321Y-100830357D01*
X168133035Y-100830357D01*
X168075892Y-100854166D01*
X168047321Y-100901785D01*
X168047321Y-100949404D01*
X168333035Y-100997023D01*
X167533035Y-101163690D02*
X167533035Y-100901785D01*
X167561607Y-100854166D01*
X167618750Y-100830357D01*
X167733035Y-100830357D01*
X167790178Y-100854166D01*
X167533035Y-101139880D02*
X167590178Y-101163690D01*
X167733035Y-101163690D01*
X167790178Y-101139880D01*
X167818750Y-101092261D01*
X167818750Y-101044642D01*
X167790178Y-100997023D01*
X167733035Y-100973214D01*
X167590178Y-100973214D01*
X167533035Y-100949404D01*
X167333035Y-100830357D02*
X167104464Y-100830357D01*
X167247321Y-100663690D02*
X167247321Y-101092261D01*
X167218750Y-101139880D01*
X167161607Y-101163690D01*
X167104464Y-101163690D01*
X166904464Y-101163690D02*
X166904464Y-100830357D01*
X166904464Y-100663690D02*
X166933035Y-100687500D01*
X166904464Y-100711309D01*
X166875892Y-100687500D01*
X166904464Y-100663690D01*
X166904464Y-100711309D01*
X166675892Y-100830357D02*
X166533035Y-101163690D01*
X166390178Y-100830357D01*
X165933035Y-101139880D02*
X165990178Y-101163690D01*
X166104464Y-101163690D01*
X166161607Y-101139880D01*
X166190178Y-101092261D01*
X166190178Y-100901785D01*
X166161607Y-100854166D01*
X166104464Y-100830357D01*
X165990178Y-100830357D01*
X165933035Y-100854166D01*
X165904464Y-100901785D01*
X165904464Y-100949404D01*
X166190178Y-100997023D01*
X164847321Y-101116071D02*
X164875892Y-101139880D01*
X164961607Y-101163690D01*
X165018750Y-101163690D01*
X165104464Y-101139880D01*
X165161607Y-101092261D01*
X165190178Y-101044642D01*
X165218750Y-100949404D01*
X165218750Y-100877976D01*
X165190178Y-100782738D01*
X165161607Y-100735119D01*
X165104464Y-100687500D01*
X165018750Y-100663690D01*
X164961607Y-100663690D01*
X164875892Y-100687500D01*
X164847321Y-100711309D01*
X164504464Y-101163690D02*
X164561607Y-101139880D01*
X164590178Y-101116071D01*
X164618750Y-101068452D01*
X164618750Y-100925595D01*
X164590178Y-100877976D01*
X164561607Y-100854166D01*
X164504464Y-100830357D01*
X164418750Y-100830357D01*
X164361607Y-100854166D01*
X164333035Y-100877976D01*
X164304464Y-100925595D01*
X164304464Y-101068452D01*
X164333035Y-101116071D01*
X164361607Y-101139880D01*
X164418750Y-101163690D01*
X164504464Y-101163690D01*
X164047321Y-101163690D02*
X164047321Y-100830357D01*
X164047321Y-100877976D02*
X164018750Y-100854166D01*
X163961607Y-100830357D01*
X163875892Y-100830357D01*
X163818750Y-100854166D01*
X163790178Y-100901785D01*
X163790178Y-101163690D01*
X163790178Y-100901785D02*
X163761607Y-100854166D01*
X163704464Y-100830357D01*
X163618750Y-100830357D01*
X163561607Y-100854166D01*
X163533035Y-100901785D01*
X163533035Y-101163690D01*
X163247321Y-101163690D02*
X163247321Y-100830357D01*
X163247321Y-100877976D02*
X163218750Y-100854166D01*
X163161607Y-100830357D01*
X163075892Y-100830357D01*
X163018750Y-100854166D01*
X162990178Y-100901785D01*
X162990178Y-101163690D01*
X162990178Y-100901785D02*
X162961607Y-100854166D01*
X162904464Y-100830357D01*
X162818750Y-100830357D01*
X162761607Y-100854166D01*
X162733035Y-100901785D01*
X162733035Y-101163690D01*
X162361607Y-101163690D02*
X162418750Y-101139880D01*
X162447321Y-101116071D01*
X162475892Y-101068452D01*
X162475892Y-100925595D01*
X162447321Y-100877976D01*
X162418750Y-100854166D01*
X162361607Y-100830357D01*
X162275892Y-100830357D01*
X162218750Y-100854166D01*
X162190178Y-100877976D01*
X162161607Y-100925595D01*
X162161607Y-101068452D01*
X162190178Y-101116071D01*
X162218750Y-101139880D01*
X162275892Y-101163690D01*
X162361607Y-101163690D01*
X161904464Y-100830357D02*
X161904464Y-101163690D01*
X161904464Y-100877976D02*
X161875892Y-100854166D01*
X161818750Y-100830357D01*
X161733035Y-100830357D01*
X161675892Y-100854166D01*
X161647321Y-100901785D01*
X161647321Y-101163690D01*
X161390178Y-101139880D02*
X161333035Y-101163690D01*
X161218750Y-101163690D01*
X161161607Y-101139880D01*
X161133035Y-101092261D01*
X161133035Y-101068452D01*
X161161607Y-101020833D01*
X161218750Y-100997023D01*
X161304464Y-100997023D01*
X161361607Y-100973214D01*
X161390178Y-100925595D01*
X161390178Y-100901785D01*
X161361607Y-100854166D01*
X161304464Y-100830357D01*
X161218750Y-100830357D01*
X161161607Y-100854166D01*
X160218750Y-100901785D02*
X160133035Y-100925595D01*
X160104464Y-100949404D01*
X160075892Y-100997023D01*
X160075892Y-101068452D01*
X160104464Y-101116071D01*
X160133035Y-101139880D01*
X160190178Y-101163690D01*
X160418750Y-101163690D01*
X160418750Y-100663690D01*
X160218750Y-100663690D01*
X160161607Y-100687500D01*
X160133035Y-100711309D01*
X160104464Y-100758928D01*
X160104464Y-100806547D01*
X160133035Y-100854166D01*
X160161607Y-100877976D01*
X160218750Y-100901785D01*
X160418750Y-100901785D01*
X159704464Y-100925595D02*
X159704464Y-101163690D01*
X159904464Y-100663690D02*
X159704464Y-100925595D01*
X159504464Y-100663690D01*
X159304464Y-100973214D02*
X158847321Y-100973214D01*
X158590178Y-101139880D02*
X158504464Y-101163690D01*
X158361607Y-101163690D01*
X158304464Y-101139880D01*
X158275892Y-101116071D01*
X158247321Y-101068452D01*
X158247321Y-101020833D01*
X158275892Y-100973214D01*
X158304464Y-100949404D01*
X158361607Y-100925595D01*
X158475892Y-100901785D01*
X158533035Y-100877976D01*
X158561607Y-100854166D01*
X158590178Y-100806547D01*
X158590178Y-100758928D01*
X158561607Y-100711309D01*
X158533035Y-100687500D01*
X158475892Y-100663690D01*
X158333035Y-100663690D01*
X158247321Y-100687500D01*
X158018750Y-101020833D02*
X157733035Y-101020833D01*
X158075892Y-101163690D02*
X157875892Y-100663690D01*
X157675892Y-101163690D01*
D11*
X156570000Y-97170000D02*
X156570000Y-102370000D01*
X141270000Y-97170000D02*
X156570000Y-97170000D01*
X138670000Y-102370000D02*
X156570000Y-102370000D01*
X141270000Y-97170000D02*
X141270000Y-99770000D01*
X141270000Y-99770000D02*
X138670000Y-99770000D01*
X138670000Y-99770000D02*
X138670000Y-102370000D01*
X140000000Y-97170000D02*
X138670000Y-97170000D01*
X138670000Y-97170000D02*
X138670000Y-98500000D01*
D12*
G36*
X131896090Y-96242348D02*
G01*
X131817546Y-96242778D01*
X131760702Y-96243942D01*
X131721895Y-96246207D01*
X131697462Y-96249940D01*
X131683738Y-96255506D01*
X131677060Y-96263273D01*
X131673764Y-96273605D01*
X131673444Y-96274943D01*
X131668438Y-96299079D01*
X131659171Y-96346701D01*
X131646608Y-96412741D01*
X131631713Y-96492128D01*
X131615449Y-96579796D01*
X131614881Y-96582875D01*
X131598590Y-96668789D01*
X131583348Y-96744696D01*
X131570139Y-96806045D01*
X131559946Y-96848282D01*
X131553752Y-96866855D01*
X131553457Y-96867184D01*
X131535212Y-96876253D01*
X131497595Y-96891367D01*
X131448729Y-96909262D01*
X131448457Y-96909358D01*
X131386907Y-96932493D01*
X131314343Y-96961965D01*
X131245943Y-96991597D01*
X131242706Y-96993062D01*
X131131298Y-97043626D01*
X130884601Y-96875160D01*
X130808923Y-96823803D01*
X130740369Y-96777889D01*
X130682912Y-96740030D01*
X130640524Y-96712837D01*
X130617175Y-96698921D01*
X130614958Y-96697889D01*
X130597990Y-96702484D01*
X130566299Y-96724655D01*
X130518648Y-96765447D01*
X130453802Y-96825905D01*
X130387603Y-96890227D01*
X130323786Y-96953612D01*
X130266671Y-97011451D01*
X130219695Y-97060175D01*
X130186297Y-97096210D01*
X130169915Y-97115984D01*
X130169306Y-97117002D01*
X130167495Y-97130572D01*
X130174317Y-97152733D01*
X130191460Y-97186478D01*
X130220607Y-97234800D01*
X130263445Y-97300692D01*
X130320552Y-97385517D01*
X130371234Y-97460177D01*
X130416539Y-97527140D01*
X130453850Y-97582516D01*
X130480548Y-97622420D01*
X130494015Y-97642962D01*
X130494863Y-97644356D01*
X130493219Y-97664038D01*
X130480755Y-97702293D01*
X130459952Y-97751889D01*
X130452538Y-97767728D01*
X130420186Y-97838290D01*
X130385672Y-97918353D01*
X130357635Y-97987629D01*
X130337432Y-98039045D01*
X130321385Y-98078119D01*
X130312112Y-98098541D01*
X130310959Y-98100114D01*
X130293904Y-98102721D01*
X130253702Y-98109863D01*
X130195698Y-98120523D01*
X130125237Y-98133685D01*
X130047665Y-98148333D01*
X129968328Y-98163449D01*
X129892569Y-98178018D01*
X129825736Y-98191022D01*
X129773172Y-98201445D01*
X129740224Y-98208270D01*
X129732143Y-98210199D01*
X129723795Y-98214962D01*
X129717494Y-98225718D01*
X129712955Y-98246098D01*
X129709896Y-98279734D01*
X129708033Y-98330255D01*
X129707082Y-98401292D01*
X129706760Y-98496476D01*
X129706743Y-98535492D01*
X129706743Y-98852799D01*
X129782943Y-98867839D01*
X129825337Y-98875995D01*
X129888600Y-98887899D01*
X129965038Y-98902116D01*
X130046957Y-98917210D01*
X130069600Y-98921355D01*
X130145194Y-98936053D01*
X130211047Y-98950505D01*
X130261634Y-98963375D01*
X130291426Y-98973322D01*
X130296388Y-98976287D01*
X130308574Y-98997283D01*
X130326047Y-99037967D01*
X130345423Y-99090322D01*
X130349266Y-99101600D01*
X130374661Y-99171523D01*
X130406183Y-99250418D01*
X130437031Y-99321266D01*
X130437183Y-99321595D01*
X130488553Y-99432733D01*
X130319601Y-99681253D01*
X130150648Y-99929772D01*
X130367571Y-100147058D01*
X130433181Y-100211726D01*
X130493021Y-100268733D01*
X130543733Y-100315033D01*
X130581954Y-100347584D01*
X130604325Y-100363343D01*
X130607534Y-100364343D01*
X130626374Y-100356469D01*
X130664820Y-100334578D01*
X130718670Y-100301267D01*
X130783724Y-100259131D01*
X130854060Y-100211943D01*
X130925445Y-100163810D01*
X130989092Y-100121928D01*
X131040959Y-100088871D01*
X131077005Y-100067218D01*
X131093133Y-100059543D01*
X131112811Y-100066037D01*
X131150125Y-100083150D01*
X131197379Y-100107326D01*
X131202388Y-100110013D01*
X131266023Y-100141927D01*
X131309659Y-100157579D01*
X131336798Y-100157745D01*
X131350943Y-100143204D01*
X131351025Y-100143000D01*
X131358095Y-100125779D01*
X131374958Y-100084899D01*
X131400305Y-100023525D01*
X131432829Y-99944819D01*
X131471222Y-99851947D01*
X131514178Y-99748072D01*
X131555778Y-99647502D01*
X131601496Y-99536516D01*
X131643474Y-99433703D01*
X131680452Y-99342215D01*
X131711173Y-99265201D01*
X131734378Y-99205815D01*
X131748810Y-99167209D01*
X131753257Y-99152800D01*
X131742104Y-99136272D01*
X131712931Y-99109930D01*
X131674029Y-99080887D01*
X131563243Y-98989039D01*
X131476649Y-98883759D01*
X131415284Y-98767266D01*
X131380185Y-98641776D01*
X131372392Y-98509507D01*
X131378057Y-98448457D01*
X131408922Y-98321795D01*
X131462080Y-98209941D01*
X131534233Y-98114001D01*
X131622083Y-98035076D01*
X131722335Y-97974270D01*
X131831690Y-97932687D01*
X131946853Y-97911428D01*
X132064525Y-97911599D01*
X132181410Y-97934301D01*
X132294211Y-97980638D01*
X132399631Y-98051713D01*
X132443632Y-98091911D01*
X132528021Y-98195129D01*
X132586778Y-98307925D01*
X132620296Y-98427010D01*
X132628965Y-98549095D01*
X132613177Y-98670893D01*
X132573322Y-98789116D01*
X132509793Y-98900475D01*
X132422979Y-99001684D01*
X132325971Y-99080887D01*
X132285563Y-99111162D01*
X132257018Y-99137219D01*
X132246743Y-99152825D01*
X132252123Y-99169843D01*
X132267425Y-99210500D01*
X132291388Y-99271642D01*
X132322756Y-99350119D01*
X132360268Y-99442780D01*
X132402667Y-99546472D01*
X132444337Y-99647526D01*
X132490310Y-99758607D01*
X132532893Y-99861541D01*
X132570779Y-99953165D01*
X132602660Y-100030316D01*
X132627229Y-100089831D01*
X132643180Y-100128544D01*
X132649090Y-100143000D01*
X132663052Y-100157685D01*
X132690060Y-100157642D01*
X132733587Y-100142099D01*
X132797110Y-100110284D01*
X132797612Y-100110013D01*
X132845440Y-100085323D01*
X132884103Y-100067338D01*
X132905905Y-100059614D01*
X132906867Y-100059543D01*
X132923279Y-100067378D01*
X132959513Y-100089165D01*
X133011526Y-100122328D01*
X133075275Y-100164291D01*
X133145940Y-100211943D01*
X133217884Y-100260191D01*
X133282726Y-100302151D01*
X133336265Y-100335227D01*
X133374303Y-100356821D01*
X133392467Y-100364343D01*
X133409192Y-100354457D01*
X133442820Y-100326826D01*
X133489990Y-100284495D01*
X133547342Y-100230505D01*
X133611516Y-100167899D01*
X133632503Y-100146983D01*
X133849501Y-99929623D01*
X133684332Y-99687220D01*
X133634136Y-99612781D01*
X133590081Y-99545972D01*
X133554638Y-99490665D01*
X133530281Y-99450729D01*
X133519478Y-99430036D01*
X133519162Y-99428563D01*
X133524857Y-99409058D01*
X133540174Y-99369822D01*
X133562463Y-99317430D01*
X133578107Y-99282355D01*
X133607359Y-99215201D01*
X133634906Y-99147358D01*
X133656263Y-99090034D01*
X133662065Y-99072572D01*
X133678548Y-99025938D01*
X133694660Y-98989905D01*
X133703510Y-98976287D01*
X133723040Y-98967952D01*
X133765666Y-98956137D01*
X133825855Y-98942181D01*
X133898078Y-98927422D01*
X133930400Y-98921355D01*
X134012478Y-98906273D01*
X134091205Y-98891669D01*
X134158891Y-98878980D01*
X134207840Y-98869642D01*
X134217057Y-98867839D01*
X134293257Y-98852799D01*
X134293257Y-98535492D01*
X134293086Y-98431154D01*
X134292384Y-98352213D01*
X134290866Y-98295038D01*
X134288251Y-98255999D01*
X134284254Y-98231465D01*
X134278591Y-98217805D01*
X134270980Y-98211389D01*
X134267857Y-98210199D01*
X134249022Y-98205980D01*
X134207412Y-98197562D01*
X134148370Y-98185961D01*
X134077243Y-98172195D01*
X133999375Y-98157280D01*
X133920113Y-98142232D01*
X133844802Y-98128069D01*
X133778787Y-98115806D01*
X133727413Y-98106461D01*
X133696025Y-98101050D01*
X133689041Y-98100114D01*
X133682715Y-98087596D01*
X133668710Y-98054246D01*
X133649645Y-98006377D01*
X133642366Y-97987629D01*
X133613004Y-97915195D01*
X133578429Y-97835170D01*
X133547463Y-97767728D01*
X133524677Y-97716159D01*
X133509518Y-97673785D01*
X133504458Y-97647834D01*
X133505264Y-97644356D01*
X133515959Y-97627936D01*
X133540380Y-97591417D01*
X133575905Y-97538687D01*
X133619913Y-97473635D01*
X133669783Y-97400151D01*
X133679644Y-97385645D01*
X133737508Y-97299704D01*
X133780044Y-97234261D01*
X133808946Y-97186304D01*
X133825910Y-97152820D01*
X133832633Y-97130795D01*
X133830810Y-97117217D01*
X133830764Y-97117131D01*
X133816414Y-97099297D01*
X133784677Y-97064817D01*
X133738990Y-97017268D01*
X133682796Y-96960222D01*
X133619532Y-96897255D01*
X133612398Y-96890227D01*
X133532670Y-96813020D01*
X133471143Y-96756330D01*
X133426579Y-96719110D01*
X133397743Y-96700315D01*
X133385042Y-96697889D01*
X133366506Y-96708471D01*
X133328039Y-96732916D01*
X133273614Y-96768612D01*
X133207202Y-96812947D01*
X133132775Y-96863311D01*
X133115399Y-96875160D01*
X132868703Y-97043626D01*
X132757294Y-96993062D01*
X132689543Y-96963595D01*
X132616817Y-96933959D01*
X132554297Y-96910330D01*
X132551543Y-96909358D01*
X132502640Y-96891457D01*
X132464943Y-96876320D01*
X132446575Y-96867210D01*
X132446544Y-96867184D01*
X132440715Y-96850717D01*
X132430808Y-96810219D01*
X132417805Y-96750242D01*
X132402691Y-96675340D01*
X132386448Y-96590064D01*
X132385119Y-96582875D01*
X132368825Y-96495014D01*
X132353867Y-96415260D01*
X132341209Y-96348681D01*
X132331814Y-96300347D01*
X132326646Y-96275325D01*
X132326556Y-96274943D01*
X132323411Y-96264299D01*
X132317296Y-96256262D01*
X132304547Y-96250467D01*
X132281500Y-96246547D01*
X132244491Y-96244135D01*
X132189856Y-96242865D01*
X132113933Y-96242371D01*
X132013056Y-96242286D01*
X132000000Y-96242286D01*
X131896090Y-96242348D01*
X131896090Y-96242348D01*
G37*
X131896090Y-96242348D02*
X131817546Y-96242778D01*
X131760702Y-96243942D01*
X131721895Y-96246207D01*
X131697462Y-96249940D01*
X131683738Y-96255506D01*
X131677060Y-96263273D01*
X131673764Y-96273605D01*
X131673444Y-96274943D01*
X131668438Y-96299079D01*
X131659171Y-96346701D01*
X131646608Y-96412741D01*
X131631713Y-96492128D01*
X131615449Y-96579796D01*
X131614881Y-96582875D01*
X131598590Y-96668789D01*
X131583348Y-96744696D01*
X131570139Y-96806045D01*
X131559946Y-96848282D01*
X131553752Y-96866855D01*
X131553457Y-96867184D01*
X131535212Y-96876253D01*
X131497595Y-96891367D01*
X131448729Y-96909262D01*
X131448457Y-96909358D01*
X131386907Y-96932493D01*
X131314343Y-96961965D01*
X131245943Y-96991597D01*
X131242706Y-96993062D01*
X131131298Y-97043626D01*
X130884601Y-96875160D01*
X130808923Y-96823803D01*
X130740369Y-96777889D01*
X130682912Y-96740030D01*
X130640524Y-96712837D01*
X130617175Y-96698921D01*
X130614958Y-96697889D01*
X130597990Y-96702484D01*
X130566299Y-96724655D01*
X130518648Y-96765447D01*
X130453802Y-96825905D01*
X130387603Y-96890227D01*
X130323786Y-96953612D01*
X130266671Y-97011451D01*
X130219695Y-97060175D01*
X130186297Y-97096210D01*
X130169915Y-97115984D01*
X130169306Y-97117002D01*
X130167495Y-97130572D01*
X130174317Y-97152733D01*
X130191460Y-97186478D01*
X130220607Y-97234800D01*
X130263445Y-97300692D01*
X130320552Y-97385517D01*
X130371234Y-97460177D01*
X130416539Y-97527140D01*
X130453850Y-97582516D01*
X130480548Y-97622420D01*
X130494015Y-97642962D01*
X130494863Y-97644356D01*
X130493219Y-97664038D01*
X130480755Y-97702293D01*
X130459952Y-97751889D01*
X130452538Y-97767728D01*
X130420186Y-97838290D01*
X130385672Y-97918353D01*
X130357635Y-97987629D01*
X130337432Y-98039045D01*
X130321385Y-98078119D01*
X130312112Y-98098541D01*
X130310959Y-98100114D01*
X130293904Y-98102721D01*
X130253702Y-98109863D01*
X130195698Y-98120523D01*
X130125237Y-98133685D01*
X130047665Y-98148333D01*
X129968328Y-98163449D01*
X129892569Y-98178018D01*
X129825736Y-98191022D01*
X129773172Y-98201445D01*
X129740224Y-98208270D01*
X129732143Y-98210199D01*
X129723795Y-98214962D01*
X129717494Y-98225718D01*
X129712955Y-98246098D01*
X129709896Y-98279734D01*
X129708033Y-98330255D01*
X129707082Y-98401292D01*
X129706760Y-98496476D01*
X129706743Y-98535492D01*
X129706743Y-98852799D01*
X129782943Y-98867839D01*
X129825337Y-98875995D01*
X129888600Y-98887899D01*
X129965038Y-98902116D01*
X130046957Y-98917210D01*
X130069600Y-98921355D01*
X130145194Y-98936053D01*
X130211047Y-98950505D01*
X130261634Y-98963375D01*
X130291426Y-98973322D01*
X130296388Y-98976287D01*
X130308574Y-98997283D01*
X130326047Y-99037967D01*
X130345423Y-99090322D01*
X130349266Y-99101600D01*
X130374661Y-99171523D01*
X130406183Y-99250418D01*
X130437031Y-99321266D01*
X130437183Y-99321595D01*
X130488553Y-99432733D01*
X130319601Y-99681253D01*
X130150648Y-99929772D01*
X130367571Y-100147058D01*
X130433181Y-100211726D01*
X130493021Y-100268733D01*
X130543733Y-100315033D01*
X130581954Y-100347584D01*
X130604325Y-100363343D01*
X130607534Y-100364343D01*
X130626374Y-100356469D01*
X130664820Y-100334578D01*
X130718670Y-100301267D01*
X130783724Y-100259131D01*
X130854060Y-100211943D01*
X130925445Y-100163810D01*
X130989092Y-100121928D01*
X131040959Y-100088871D01*
X131077005Y-100067218D01*
X131093133Y-100059543D01*
X131112811Y-100066037D01*
X131150125Y-100083150D01*
X131197379Y-100107326D01*
X131202388Y-100110013D01*
X131266023Y-100141927D01*
X131309659Y-100157579D01*
X131336798Y-100157745D01*
X131350943Y-100143204D01*
X131351025Y-100143000D01*
X131358095Y-100125779D01*
X131374958Y-100084899D01*
X131400305Y-100023525D01*
X131432829Y-99944819D01*
X131471222Y-99851947D01*
X131514178Y-99748072D01*
X131555778Y-99647502D01*
X131601496Y-99536516D01*
X131643474Y-99433703D01*
X131680452Y-99342215D01*
X131711173Y-99265201D01*
X131734378Y-99205815D01*
X131748810Y-99167209D01*
X131753257Y-99152800D01*
X131742104Y-99136272D01*
X131712931Y-99109930D01*
X131674029Y-99080887D01*
X131563243Y-98989039D01*
X131476649Y-98883759D01*
X131415284Y-98767266D01*
X131380185Y-98641776D01*
X131372392Y-98509507D01*
X131378057Y-98448457D01*
X131408922Y-98321795D01*
X131462080Y-98209941D01*
X131534233Y-98114001D01*
X131622083Y-98035076D01*
X131722335Y-97974270D01*
X131831690Y-97932687D01*
X131946853Y-97911428D01*
X132064525Y-97911599D01*
X132181410Y-97934301D01*
X132294211Y-97980638D01*
X132399631Y-98051713D01*
X132443632Y-98091911D01*
X132528021Y-98195129D01*
X132586778Y-98307925D01*
X132620296Y-98427010D01*
X132628965Y-98549095D01*
X132613177Y-98670893D01*
X132573322Y-98789116D01*
X132509793Y-98900475D01*
X132422979Y-99001684D01*
X132325971Y-99080887D01*
X132285563Y-99111162D01*
X132257018Y-99137219D01*
X132246743Y-99152825D01*
X132252123Y-99169843D01*
X132267425Y-99210500D01*
X132291388Y-99271642D01*
X132322756Y-99350119D01*
X132360268Y-99442780D01*
X132402667Y-99546472D01*
X132444337Y-99647526D01*
X132490310Y-99758607D01*
X132532893Y-99861541D01*
X132570779Y-99953165D01*
X132602660Y-100030316D01*
X132627229Y-100089831D01*
X132643180Y-100128544D01*
X132649090Y-100143000D01*
X132663052Y-100157685D01*
X132690060Y-100157642D01*
X132733587Y-100142099D01*
X132797110Y-100110284D01*
X132797612Y-100110013D01*
X132845440Y-100085323D01*
X132884103Y-100067338D01*
X132905905Y-100059614D01*
X132906867Y-100059543D01*
X132923279Y-100067378D01*
X132959513Y-100089165D01*
X133011526Y-100122328D01*
X133075275Y-100164291D01*
X133145940Y-100211943D01*
X133217884Y-100260191D01*
X133282726Y-100302151D01*
X133336265Y-100335227D01*
X133374303Y-100356821D01*
X133392467Y-100364343D01*
X133409192Y-100354457D01*
X133442820Y-100326826D01*
X133489990Y-100284495D01*
X133547342Y-100230505D01*
X133611516Y-100167899D01*
X133632503Y-100146983D01*
X133849501Y-99929623D01*
X133684332Y-99687220D01*
X133634136Y-99612781D01*
X133590081Y-99545972D01*
X133554638Y-99490665D01*
X133530281Y-99450729D01*
X133519478Y-99430036D01*
X133519162Y-99428563D01*
X133524857Y-99409058D01*
X133540174Y-99369822D01*
X133562463Y-99317430D01*
X133578107Y-99282355D01*
X133607359Y-99215201D01*
X133634906Y-99147358D01*
X133656263Y-99090034D01*
X133662065Y-99072572D01*
X133678548Y-99025938D01*
X133694660Y-98989905D01*
X133703510Y-98976287D01*
X133723040Y-98967952D01*
X133765666Y-98956137D01*
X133825855Y-98942181D01*
X133898078Y-98927422D01*
X133930400Y-98921355D01*
X134012478Y-98906273D01*
X134091205Y-98891669D01*
X134158891Y-98878980D01*
X134207840Y-98869642D01*
X134217057Y-98867839D01*
X134293257Y-98852799D01*
X134293257Y-98535492D01*
X134293086Y-98431154D01*
X134292384Y-98352213D01*
X134290866Y-98295038D01*
X134288251Y-98255999D01*
X134284254Y-98231465D01*
X134278591Y-98217805D01*
X134270980Y-98211389D01*
X134267857Y-98210199D01*
X134249022Y-98205980D01*
X134207412Y-98197562D01*
X134148370Y-98185961D01*
X134077243Y-98172195D01*
X133999375Y-98157280D01*
X133920113Y-98142232D01*
X133844802Y-98128069D01*
X133778787Y-98115806D01*
X133727413Y-98106461D01*
X133696025Y-98101050D01*
X133689041Y-98100114D01*
X133682715Y-98087596D01*
X133668710Y-98054246D01*
X133649645Y-98006377D01*
X133642366Y-97987629D01*
X133613004Y-97915195D01*
X133578429Y-97835170D01*
X133547463Y-97767728D01*
X133524677Y-97716159D01*
X133509518Y-97673785D01*
X133504458Y-97647834D01*
X133505264Y-97644356D01*
X133515959Y-97627936D01*
X133540380Y-97591417D01*
X133575905Y-97538687D01*
X133619913Y-97473635D01*
X133669783Y-97400151D01*
X133679644Y-97385645D01*
X133737508Y-97299704D01*
X133780044Y-97234261D01*
X133808946Y-97186304D01*
X133825910Y-97152820D01*
X133832633Y-97130795D01*
X133830810Y-97117217D01*
X133830764Y-97117131D01*
X133816414Y-97099297D01*
X133784677Y-97064817D01*
X133738990Y-97017268D01*
X133682796Y-96960222D01*
X133619532Y-96897255D01*
X133612398Y-96890227D01*
X133532670Y-96813020D01*
X133471143Y-96756330D01*
X133426579Y-96719110D01*
X133397743Y-96700315D01*
X133385042Y-96697889D01*
X133366506Y-96708471D01*
X133328039Y-96732916D01*
X133273614Y-96768612D01*
X133207202Y-96812947D01*
X133132775Y-96863311D01*
X133115399Y-96875160D01*
X132868703Y-97043626D01*
X132757294Y-96993062D01*
X132689543Y-96963595D01*
X132616817Y-96933959D01*
X132554297Y-96910330D01*
X132551543Y-96909358D01*
X132502640Y-96891457D01*
X132464943Y-96876320D01*
X132446575Y-96867210D01*
X132446544Y-96867184D01*
X132440715Y-96850717D01*
X132430808Y-96810219D01*
X132417805Y-96750242D01*
X132402691Y-96675340D01*
X132386448Y-96590064D01*
X132385119Y-96582875D01*
X132368825Y-96495014D01*
X132353867Y-96415260D01*
X132341209Y-96348681D01*
X132331814Y-96300347D01*
X132326646Y-96275325D01*
X132326556Y-96274943D01*
X132323411Y-96264299D01*
X132317296Y-96256262D01*
X132304547Y-96250467D01*
X132281500Y-96246547D01*
X132244491Y-96244135D01*
X132189856Y-96242865D01*
X132113933Y-96242371D01*
X132013056Y-96242286D01*
X132000000Y-96242286D01*
X131896090Y-96242348D01*
G36*
X128846405Y-100966966D02*
G01*
X128788979Y-101004497D01*
X128761281Y-101038096D01*
X128739338Y-101099064D01*
X128737595Y-101147308D01*
X128741543Y-101211816D01*
X128890314Y-101276934D01*
X128962651Y-101310202D01*
X129009916Y-101336964D01*
X129034493Y-101360144D01*
X129038763Y-101382667D01*
X129025111Y-101407455D01*
X129010057Y-101423886D01*
X128966254Y-101450235D01*
X128918611Y-101452081D01*
X128874855Y-101431546D01*
X128842711Y-101390752D01*
X128836962Y-101376347D01*
X128809424Y-101331356D01*
X128777742Y-101312182D01*
X128734286Y-101295779D01*
X128734286Y-101357966D01*
X128738128Y-101400283D01*
X128753177Y-101435969D01*
X128784720Y-101476943D01*
X128789408Y-101482267D01*
X128824494Y-101518720D01*
X128854653Y-101538283D01*
X128892385Y-101547283D01*
X128923665Y-101550230D01*
X128979615Y-101550965D01*
X129019445Y-101541660D01*
X129044292Y-101527846D01*
X129083344Y-101497467D01*
X129110375Y-101464613D01*
X129127483Y-101423294D01*
X129136762Y-101367521D01*
X129140307Y-101291305D01*
X129140590Y-101252622D01*
X129139628Y-101206247D01*
X129051993Y-101206247D01*
X129050977Y-101231126D01*
X129048444Y-101235200D01*
X129031726Y-101229665D01*
X128995751Y-101215017D01*
X128947669Y-101194190D01*
X128937614Y-101189714D01*
X128876848Y-101158814D01*
X128843368Y-101131657D01*
X128836010Y-101106220D01*
X128853609Y-101080481D01*
X128868144Y-101069109D01*
X128920590Y-101046364D01*
X128969678Y-101050122D01*
X129010773Y-101077884D01*
X129039242Y-101127152D01*
X129048369Y-101166257D01*
X129051993Y-101206247D01*
X129139628Y-101206247D01*
X129138715Y-101162249D01*
X129131804Y-101095384D01*
X129118116Y-101046695D01*
X129095904Y-101010849D01*
X129063426Y-100982513D01*
X129049267Y-100973355D01*
X128984947Y-100949507D01*
X128914527Y-100948006D01*
X128846405Y-100966966D01*
X128846405Y-100966966D01*
G37*
X128846405Y-100966966D02*
X128788979Y-101004497D01*
X128761281Y-101038096D01*
X128739338Y-101099064D01*
X128737595Y-101147308D01*
X128741543Y-101211816D01*
X128890314Y-101276934D01*
X128962651Y-101310202D01*
X129009916Y-101336964D01*
X129034493Y-101360144D01*
X129038763Y-101382667D01*
X129025111Y-101407455D01*
X129010057Y-101423886D01*
X128966254Y-101450235D01*
X128918611Y-101452081D01*
X128874855Y-101431546D01*
X128842711Y-101390752D01*
X128836962Y-101376347D01*
X128809424Y-101331356D01*
X128777742Y-101312182D01*
X128734286Y-101295779D01*
X128734286Y-101357966D01*
X128738128Y-101400283D01*
X128753177Y-101435969D01*
X128784720Y-101476943D01*
X128789408Y-101482267D01*
X128824494Y-101518720D01*
X128854653Y-101538283D01*
X128892385Y-101547283D01*
X128923665Y-101550230D01*
X128979615Y-101550965D01*
X129019445Y-101541660D01*
X129044292Y-101527846D01*
X129083344Y-101497467D01*
X129110375Y-101464613D01*
X129127483Y-101423294D01*
X129136762Y-101367521D01*
X129140307Y-101291305D01*
X129140590Y-101252622D01*
X129139628Y-101206247D01*
X129051993Y-101206247D01*
X129050977Y-101231126D01*
X129048444Y-101235200D01*
X129031726Y-101229665D01*
X128995751Y-101215017D01*
X128947669Y-101194190D01*
X128937614Y-101189714D01*
X128876848Y-101158814D01*
X128843368Y-101131657D01*
X128836010Y-101106220D01*
X128853609Y-101080481D01*
X128868144Y-101069109D01*
X128920590Y-101046364D01*
X128969678Y-101050122D01*
X129010773Y-101077884D01*
X129039242Y-101127152D01*
X129048369Y-101166257D01*
X129051993Y-101206247D01*
X129139628Y-101206247D01*
X129138715Y-101162249D01*
X129131804Y-101095384D01*
X129118116Y-101046695D01*
X129095904Y-101010849D01*
X129063426Y-100982513D01*
X129049267Y-100973355D01*
X128984947Y-100949507D01*
X128914527Y-100948006D01*
X128846405Y-100966966D01*
G36*
X129347400Y-100958752D02*
G01*
X129330052Y-100966334D01*
X129288644Y-100999128D01*
X129253235Y-101046547D01*
X129231336Y-101097151D01*
X129227771Y-101122098D01*
X129239721Y-101156927D01*
X129265933Y-101175357D01*
X129294036Y-101186516D01*
X129306905Y-101188572D01*
X129313171Y-101173649D01*
X129325544Y-101141175D01*
X129330972Y-101126502D01*
X129361410Y-101075744D01*
X129405480Y-101050427D01*
X129461990Y-101051206D01*
X129466175Y-101052203D01*
X129496345Y-101066507D01*
X129518524Y-101094393D01*
X129533673Y-101139287D01*
X129542750Y-101204615D01*
X129546714Y-101293804D01*
X129547086Y-101341261D01*
X129547270Y-101416071D01*
X129548478Y-101467069D01*
X129551691Y-101499471D01*
X129557891Y-101518495D01*
X129568060Y-101529356D01*
X129583181Y-101537272D01*
X129584054Y-101537670D01*
X129613172Y-101549981D01*
X129627597Y-101554514D01*
X129629814Y-101540809D01*
X129631711Y-101502925D01*
X129633153Y-101445715D01*
X129634002Y-101374027D01*
X129634171Y-101321565D01*
X129633308Y-101220047D01*
X129629930Y-101143032D01*
X129622858Y-101086023D01*
X129610912Y-101044526D01*
X129592910Y-101014043D01*
X129567673Y-100990080D01*
X129542753Y-100973355D01*
X129482829Y-100951097D01*
X129413089Y-100946076D01*
X129347400Y-100958752D01*
X129347400Y-100958752D01*
G37*
X129347400Y-100958752D02*
X129330052Y-100966334D01*
X129288644Y-100999128D01*
X129253235Y-101046547D01*
X129231336Y-101097151D01*
X129227771Y-101122098D01*
X129239721Y-101156927D01*
X129265933Y-101175357D01*
X129294036Y-101186516D01*
X129306905Y-101188572D01*
X129313171Y-101173649D01*
X129325544Y-101141175D01*
X129330972Y-101126502D01*
X129361410Y-101075744D01*
X129405480Y-101050427D01*
X129461990Y-101051206D01*
X129466175Y-101052203D01*
X129496345Y-101066507D01*
X129518524Y-101094393D01*
X129533673Y-101139287D01*
X129542750Y-101204615D01*
X129546714Y-101293804D01*
X129547086Y-101341261D01*
X129547270Y-101416071D01*
X129548478Y-101467069D01*
X129551691Y-101499471D01*
X129557891Y-101518495D01*
X129568060Y-101529356D01*
X129583181Y-101537272D01*
X129584054Y-101537670D01*
X129613172Y-101549981D01*
X129627597Y-101554514D01*
X129629814Y-101540809D01*
X129631711Y-101502925D01*
X129633153Y-101445715D01*
X129634002Y-101374027D01*
X129634171Y-101321565D01*
X129633308Y-101220047D01*
X129629930Y-101143032D01*
X129622858Y-101086023D01*
X129610912Y-101044526D01*
X129592910Y-101014043D01*
X129567673Y-100990080D01*
X129542753Y-100973355D01*
X129482829Y-100951097D01*
X129413089Y-100946076D01*
X129347400Y-100958752D01*
G36*
X129855124Y-100956335D02*
G01*
X129813333Y-100975344D01*
X129780531Y-100998378D01*
X129756497Y-101024133D01*
X129739903Y-101057358D01*
X129729423Y-101102800D01*
X129723729Y-101165207D01*
X129721493Y-101249327D01*
X129721257Y-101304721D01*
X129721257Y-101520826D01*
X129758226Y-101537670D01*
X129787344Y-101549981D01*
X129801769Y-101554514D01*
X129804528Y-101541025D01*
X129806718Y-101504653D01*
X129808058Y-101451542D01*
X129808343Y-101409372D01*
X129809566Y-101348447D01*
X129812864Y-101300115D01*
X129817679Y-101270518D01*
X129821504Y-101264229D01*
X129847217Y-101270652D01*
X129887582Y-101287125D01*
X129934321Y-101309458D01*
X129979155Y-101333457D01*
X130013807Y-101354930D01*
X130029998Y-101369685D01*
X130030062Y-101369845D01*
X130028670Y-101397152D01*
X130016182Y-101423219D01*
X129994257Y-101444392D01*
X129962257Y-101451474D01*
X129934908Y-101450649D01*
X129896174Y-101450042D01*
X129875842Y-101459116D01*
X129863631Y-101483092D01*
X129862091Y-101487613D01*
X129856797Y-101521806D01*
X129870953Y-101542568D01*
X129907852Y-101552462D01*
X129947711Y-101554292D01*
X130019438Y-101540727D01*
X130056568Y-101521355D01*
X130102424Y-101475845D01*
X130126744Y-101419983D01*
X130128927Y-101360957D01*
X130108371Y-101305953D01*
X130077451Y-101271486D01*
X130046580Y-101252189D01*
X129998058Y-101227759D01*
X129941515Y-101202985D01*
X129932090Y-101199199D01*
X129869981Y-101171791D01*
X129834178Y-101147634D01*
X129822663Y-101123619D01*
X129833420Y-101096635D01*
X129851886Y-101075543D01*
X129895531Y-101049572D01*
X129943554Y-101047624D01*
X129987594Y-101067637D01*
X130019291Y-101107551D01*
X130023451Y-101117848D01*
X130047673Y-101155724D01*
X130083035Y-101183842D01*
X130127657Y-101206917D01*
X130127657Y-101141485D01*
X130125031Y-101101506D01*
X130113770Y-101069997D01*
X130088801Y-101036378D01*
X130064831Y-101010484D01*
X130027559Y-100973817D01*
X129998599Y-100954121D01*
X129967495Y-100946220D01*
X129932287Y-100944914D01*
X129855124Y-100956335D01*
X129855124Y-100956335D01*
G37*
X129855124Y-100956335D02*
X129813333Y-100975344D01*
X129780531Y-100998378D01*
X129756497Y-101024133D01*
X129739903Y-101057358D01*
X129729423Y-101102800D01*
X129723729Y-101165207D01*
X129721493Y-101249327D01*
X129721257Y-101304721D01*
X129721257Y-101520826D01*
X129758226Y-101537670D01*
X129787344Y-101549981D01*
X129801769Y-101554514D01*
X129804528Y-101541025D01*
X129806718Y-101504653D01*
X129808058Y-101451542D01*
X129808343Y-101409372D01*
X129809566Y-101348447D01*
X129812864Y-101300115D01*
X129817679Y-101270518D01*
X129821504Y-101264229D01*
X129847217Y-101270652D01*
X129887582Y-101287125D01*
X129934321Y-101309458D01*
X129979155Y-101333457D01*
X130013807Y-101354930D01*
X130029998Y-101369685D01*
X130030062Y-101369845D01*
X130028670Y-101397152D01*
X130016182Y-101423219D01*
X129994257Y-101444392D01*
X129962257Y-101451474D01*
X129934908Y-101450649D01*
X129896174Y-101450042D01*
X129875842Y-101459116D01*
X129863631Y-101483092D01*
X129862091Y-101487613D01*
X129856797Y-101521806D01*
X129870953Y-101542568D01*
X129907852Y-101552462D01*
X129947711Y-101554292D01*
X130019438Y-101540727D01*
X130056568Y-101521355D01*
X130102424Y-101475845D01*
X130126744Y-101419983D01*
X130128927Y-101360957D01*
X130108371Y-101305953D01*
X130077451Y-101271486D01*
X130046580Y-101252189D01*
X129998058Y-101227759D01*
X129941515Y-101202985D01*
X129932090Y-101199199D01*
X129869981Y-101171791D01*
X129834178Y-101147634D01*
X129822663Y-101123619D01*
X129833420Y-101096635D01*
X129851886Y-101075543D01*
X129895531Y-101049572D01*
X129943554Y-101047624D01*
X129987594Y-101067637D01*
X130019291Y-101107551D01*
X130023451Y-101117848D01*
X130047673Y-101155724D01*
X130083035Y-101183842D01*
X130127657Y-101206917D01*
X130127657Y-101141485D01*
X130125031Y-101101506D01*
X130113770Y-101069997D01*
X130088801Y-101036378D01*
X130064831Y-101010484D01*
X130027559Y-100973817D01*
X129998599Y-100954121D01*
X129967495Y-100946220D01*
X129932287Y-100944914D01*
X129855124Y-100956335D01*
G36*
X130220167Y-100958663D02*
G01*
X130217952Y-100996850D01*
X130216216Y-101054886D01*
X130215101Y-101128180D01*
X130214743Y-101205055D01*
X130214743Y-101465196D01*
X130260674Y-101511127D01*
X130292325Y-101539429D01*
X130320110Y-101550893D01*
X130358085Y-101550168D01*
X130373160Y-101548321D01*
X130420274Y-101542948D01*
X130459244Y-101539869D01*
X130468743Y-101539585D01*
X130500767Y-101541445D01*
X130546568Y-101546114D01*
X130564326Y-101548321D01*
X130607943Y-101551735D01*
X130637255Y-101544320D01*
X130666320Y-101521427D01*
X130676812Y-101511127D01*
X130722743Y-101465196D01*
X130722743Y-100978602D01*
X130685774Y-100961758D01*
X130653941Y-100949282D01*
X130635317Y-100944914D01*
X130630542Y-100958718D01*
X130626079Y-100997286D01*
X130622225Y-101056356D01*
X130619278Y-101131663D01*
X130617857Y-101195286D01*
X130613886Y-101445657D01*
X130579241Y-101450556D01*
X130547732Y-101447131D01*
X130532292Y-101436041D01*
X130527977Y-101415308D01*
X130524292Y-101371145D01*
X130521531Y-101309146D01*
X130519988Y-101234909D01*
X130519765Y-101196706D01*
X130519543Y-100976783D01*
X130473834Y-100960849D01*
X130441482Y-100950015D01*
X130423885Y-100944962D01*
X130423377Y-100944914D01*
X130421612Y-100958648D01*
X130419671Y-100996730D01*
X130417718Y-101054482D01*
X130415916Y-101127227D01*
X130414657Y-101195286D01*
X130410686Y-101445657D01*
X130323600Y-101445657D01*
X130319604Y-101217240D01*
X130315608Y-100988822D01*
X130273153Y-100966868D01*
X130241808Y-100951793D01*
X130223256Y-100944951D01*
X130222721Y-100944914D01*
X130220167Y-100958663D01*
X130220167Y-100958663D01*
G37*
X130220167Y-100958663D02*
X130217952Y-100996850D01*
X130216216Y-101054886D01*
X130215101Y-101128180D01*
X130214743Y-101205055D01*
X130214743Y-101465196D01*
X130260674Y-101511127D01*
X130292325Y-101539429D01*
X130320110Y-101550893D01*
X130358085Y-101550168D01*
X130373160Y-101548321D01*
X130420274Y-101542948D01*
X130459244Y-101539869D01*
X130468743Y-101539585D01*
X130500767Y-101541445D01*
X130546568Y-101546114D01*
X130564326Y-101548321D01*
X130607943Y-101551735D01*
X130637255Y-101544320D01*
X130666320Y-101521427D01*
X130676812Y-101511127D01*
X130722743Y-101465196D01*
X130722743Y-100978602D01*
X130685774Y-100961758D01*
X130653941Y-100949282D01*
X130635317Y-100944914D01*
X130630542Y-100958718D01*
X130626079Y-100997286D01*
X130622225Y-101056356D01*
X130619278Y-101131663D01*
X130617857Y-101195286D01*
X130613886Y-101445657D01*
X130579241Y-101450556D01*
X130547732Y-101447131D01*
X130532292Y-101436041D01*
X130527977Y-101415308D01*
X130524292Y-101371145D01*
X130521531Y-101309146D01*
X130519988Y-101234909D01*
X130519765Y-101196706D01*
X130519543Y-100976783D01*
X130473834Y-100960849D01*
X130441482Y-100950015D01*
X130423885Y-100944962D01*
X130423377Y-100944914D01*
X130421612Y-100958648D01*
X130419671Y-100996730D01*
X130417718Y-101054482D01*
X130415916Y-101127227D01*
X130414657Y-101195286D01*
X130410686Y-101445657D01*
X130323600Y-101445657D01*
X130319604Y-101217240D01*
X130315608Y-100988822D01*
X130273153Y-100966868D01*
X130241808Y-100951793D01*
X130223256Y-100944951D01*
X130222721Y-100944914D01*
X130220167Y-100958663D01*
G36*
X130809883Y-101065358D02*
G01*
X130810067Y-101173837D01*
X130810781Y-101257287D01*
X130812325Y-101319704D01*
X130814999Y-101365085D01*
X130819106Y-101397429D01*
X130824945Y-101420733D01*
X130832818Y-101438995D01*
X130838779Y-101449418D01*
X130888145Y-101505945D01*
X130950736Y-101541377D01*
X131019987Y-101554090D01*
X131089332Y-101542463D01*
X131130625Y-101521568D01*
X131173975Y-101485422D01*
X131203519Y-101441276D01*
X131221345Y-101383462D01*
X131229537Y-101306313D01*
X131230698Y-101249714D01*
X131230542Y-101245647D01*
X131129143Y-101245647D01*
X131128524Y-101310550D01*
X131125686Y-101353514D01*
X131119160Y-101381622D01*
X131107477Y-101401953D01*
X131093517Y-101417288D01*
X131046635Y-101446890D01*
X130996299Y-101449419D01*
X130948724Y-101424705D01*
X130945021Y-101421356D01*
X130929217Y-101403935D01*
X130919307Y-101383209D01*
X130913942Y-101352362D01*
X130911772Y-101304577D01*
X130911429Y-101251748D01*
X130912173Y-101185381D01*
X130915252Y-101141106D01*
X130921939Y-101112009D01*
X130933504Y-101091173D01*
X130942987Y-101080107D01*
X130987040Y-101052198D01*
X131037776Y-101048843D01*
X131086204Y-101070159D01*
X131095550Y-101078073D01*
X131111460Y-101095647D01*
X131121390Y-101116587D01*
X131126722Y-101147782D01*
X131128837Y-101196122D01*
X131129143Y-101245647D01*
X131230542Y-101245647D01*
X131227190Y-101158568D01*
X131215274Y-101090086D01*
X131192865Y-101038600D01*
X131157876Y-100998443D01*
X131130625Y-100977861D01*
X131081093Y-100955625D01*
X131023684Y-100945304D01*
X130970318Y-100948067D01*
X130940457Y-100959212D01*
X130928739Y-100962383D01*
X130920963Y-100950557D01*
X130915535Y-100918866D01*
X130911429Y-100870593D01*
X130906933Y-100816829D01*
X130900687Y-100784482D01*
X130889324Y-100765985D01*
X130869472Y-100753770D01*
X130857000Y-100748362D01*
X130809829Y-100728601D01*
X130809883Y-101065358D01*
X130809883Y-101065358D01*
G37*
X130809883Y-101065358D02*
X130810067Y-101173837D01*
X130810781Y-101257287D01*
X130812325Y-101319704D01*
X130814999Y-101365085D01*
X130819106Y-101397429D01*
X130824945Y-101420733D01*
X130832818Y-101438995D01*
X130838779Y-101449418D01*
X130888145Y-101505945D01*
X130950736Y-101541377D01*
X131019987Y-101554090D01*
X131089332Y-101542463D01*
X131130625Y-101521568D01*
X131173975Y-101485422D01*
X131203519Y-101441276D01*
X131221345Y-101383462D01*
X131229537Y-101306313D01*
X131230698Y-101249714D01*
X131230542Y-101245647D01*
X131129143Y-101245647D01*
X131128524Y-101310550D01*
X131125686Y-101353514D01*
X131119160Y-101381622D01*
X131107477Y-101401953D01*
X131093517Y-101417288D01*
X131046635Y-101446890D01*
X130996299Y-101449419D01*
X130948724Y-101424705D01*
X130945021Y-101421356D01*
X130929217Y-101403935D01*
X130919307Y-101383209D01*
X130913942Y-101352362D01*
X130911772Y-101304577D01*
X130911429Y-101251748D01*
X130912173Y-101185381D01*
X130915252Y-101141106D01*
X130921939Y-101112009D01*
X130933504Y-101091173D01*
X130942987Y-101080107D01*
X130987040Y-101052198D01*
X131037776Y-101048843D01*
X131086204Y-101070159D01*
X131095550Y-101078073D01*
X131111460Y-101095647D01*
X131121390Y-101116587D01*
X131126722Y-101147782D01*
X131128837Y-101196122D01*
X131129143Y-101245647D01*
X131230542Y-101245647D01*
X131227190Y-101158568D01*
X131215274Y-101090086D01*
X131192865Y-101038600D01*
X131157876Y-100998443D01*
X131130625Y-100977861D01*
X131081093Y-100955625D01*
X131023684Y-100945304D01*
X130970318Y-100948067D01*
X130940457Y-100959212D01*
X130928739Y-100962383D01*
X130920963Y-100950557D01*
X130915535Y-100918866D01*
X130911429Y-100870593D01*
X130906933Y-100816829D01*
X130900687Y-100784482D01*
X130889324Y-100765985D01*
X130869472Y-100753770D01*
X130857000Y-100748362D01*
X130809829Y-100728601D01*
X130809883Y-101065358D01*
G36*
X131470074Y-100949755D02*
G01*
X131404142Y-100974084D01*
X131350727Y-101017117D01*
X131329836Y-101047409D01*
X131307061Y-101102994D01*
X131307534Y-101143186D01*
X131331438Y-101170217D01*
X131340283Y-101174813D01*
X131378470Y-101189144D01*
X131397972Y-101185472D01*
X131404578Y-101161407D01*
X131404914Y-101148114D01*
X131417008Y-101099210D01*
X131448529Y-101064999D01*
X131492341Y-101048476D01*
X131541305Y-101052634D01*
X131581106Y-101074227D01*
X131594550Y-101086544D01*
X131604079Y-101101487D01*
X131610515Y-101124075D01*
X131614683Y-101159328D01*
X131617403Y-101212266D01*
X131619498Y-101287907D01*
X131620040Y-101311857D01*
X131622019Y-101393790D01*
X131624269Y-101451455D01*
X131627643Y-101489608D01*
X131632994Y-101513004D01*
X131641176Y-101526398D01*
X131653041Y-101534545D01*
X131660638Y-101538144D01*
X131692898Y-101550452D01*
X131711889Y-101554514D01*
X131718164Y-101540948D01*
X131721994Y-101499934D01*
X131723400Y-101430999D01*
X131722402Y-101333669D01*
X131722092Y-101318657D01*
X131719899Y-101229859D01*
X131717307Y-101165019D01*
X131713618Y-101119067D01*
X131708136Y-101086935D01*
X131700165Y-101063553D01*
X131689007Y-101043852D01*
X131683170Y-101035410D01*
X131649704Y-100998057D01*
X131612273Y-100969003D01*
X131607691Y-100966467D01*
X131540574Y-100946443D01*
X131470074Y-100949755D01*
X131470074Y-100949755D01*
G37*
X131470074Y-100949755D02*
X131404142Y-100974084D01*
X131350727Y-101017117D01*
X131329836Y-101047409D01*
X131307061Y-101102994D01*
X131307534Y-101143186D01*
X131331438Y-101170217D01*
X131340283Y-101174813D01*
X131378470Y-101189144D01*
X131397972Y-101185472D01*
X131404578Y-101161407D01*
X131404914Y-101148114D01*
X131417008Y-101099210D01*
X131448529Y-101064999D01*
X131492341Y-101048476D01*
X131541305Y-101052634D01*
X131581106Y-101074227D01*
X131594550Y-101086544D01*
X131604079Y-101101487D01*
X131610515Y-101124075D01*
X131614683Y-101159328D01*
X131617403Y-101212266D01*
X131619498Y-101287907D01*
X131620040Y-101311857D01*
X131622019Y-101393790D01*
X131624269Y-101451455D01*
X131627643Y-101489608D01*
X131632994Y-101513004D01*
X131641176Y-101526398D01*
X131653041Y-101534545D01*
X131660638Y-101538144D01*
X131692898Y-101550452D01*
X131711889Y-101554514D01*
X131718164Y-101540948D01*
X131721994Y-101499934D01*
X131723400Y-101430999D01*
X131722402Y-101333669D01*
X131722092Y-101318657D01*
X131719899Y-101229859D01*
X131717307Y-101165019D01*
X131713618Y-101119067D01*
X131708136Y-101086935D01*
X131700165Y-101063553D01*
X131689007Y-101043852D01*
X131683170Y-101035410D01*
X131649704Y-100998057D01*
X131612273Y-100969003D01*
X131607691Y-100966467D01*
X131540574Y-100946443D01*
X131470074Y-100949755D01*
G36*
X131960256Y-100950968D02*
G01*
X131903384Y-100972087D01*
X131902733Y-100972493D01*
X131867560Y-100998380D01*
X131841593Y-101028633D01*
X131823330Y-101068058D01*
X131811268Y-101121462D01*
X131803904Y-101193651D01*
X131799736Y-101289432D01*
X131799371Y-101303078D01*
X131794124Y-101508842D01*
X131838284Y-101531678D01*
X131870237Y-101547110D01*
X131889530Y-101554423D01*
X131890422Y-101554514D01*
X131893761Y-101541022D01*
X131896413Y-101504626D01*
X131898044Y-101451452D01*
X131898400Y-101408393D01*
X131898408Y-101338641D01*
X131901597Y-101294837D01*
X131912712Y-101273944D01*
X131936499Y-101272925D01*
X131977704Y-101288741D01*
X132039914Y-101317815D01*
X132085659Y-101341963D01*
X132109187Y-101362913D01*
X132116104Y-101385747D01*
X132116114Y-101386877D01*
X132104701Y-101426212D01*
X132070908Y-101447462D01*
X132019191Y-101450539D01*
X131981939Y-101450006D01*
X131962297Y-101460735D01*
X131950048Y-101486505D01*
X131942998Y-101519337D01*
X131953158Y-101537966D01*
X131956983Y-101540632D01*
X131992999Y-101551340D01*
X132043434Y-101552856D01*
X132095374Y-101545759D01*
X132132178Y-101532788D01*
X132183062Y-101489585D01*
X132211986Y-101429446D01*
X132217714Y-101382462D01*
X132213343Y-101340082D01*
X132197525Y-101305488D01*
X132166203Y-101274763D01*
X132115322Y-101243990D01*
X132040824Y-101209252D01*
X132036286Y-101207288D01*
X131969179Y-101176287D01*
X131927768Y-101150862D01*
X131910019Y-101128014D01*
X131913893Y-101104745D01*
X131937357Y-101078056D01*
X131944373Y-101071914D01*
X131991370Y-101048100D01*
X132040067Y-101049103D01*
X132082478Y-101072451D01*
X132110616Y-101115675D01*
X132113231Y-101124160D01*
X132138692Y-101165308D01*
X132170999Y-101185128D01*
X132217714Y-101204770D01*
X132217714Y-101153950D01*
X132203504Y-101080082D01*
X132161325Y-101012327D01*
X132139376Y-100989661D01*
X132089483Y-100960569D01*
X132026033Y-100947400D01*
X131960256Y-100950968D01*
X131960256Y-100950968D01*
G37*
X131960256Y-100950968D02*
X131903384Y-100972087D01*
X131902733Y-100972493D01*
X131867560Y-100998380D01*
X131841593Y-101028633D01*
X131823330Y-101068058D01*
X131811268Y-101121462D01*
X131803904Y-101193651D01*
X131799736Y-101289432D01*
X131799371Y-101303078D01*
X131794124Y-101508842D01*
X131838284Y-101531678D01*
X131870237Y-101547110D01*
X131889530Y-101554423D01*
X131890422Y-101554514D01*
X131893761Y-101541022D01*
X131896413Y-101504626D01*
X131898044Y-101451452D01*
X131898400Y-101408393D01*
X131898408Y-101338641D01*
X131901597Y-101294837D01*
X131912712Y-101273944D01*
X131936499Y-101272925D01*
X131977704Y-101288741D01*
X132039914Y-101317815D01*
X132085659Y-101341963D01*
X132109187Y-101362913D01*
X132116104Y-101385747D01*
X132116114Y-101386877D01*
X132104701Y-101426212D01*
X132070908Y-101447462D01*
X132019191Y-101450539D01*
X131981939Y-101450006D01*
X131962297Y-101460735D01*
X131950048Y-101486505D01*
X131942998Y-101519337D01*
X131953158Y-101537966D01*
X131956983Y-101540632D01*
X131992999Y-101551340D01*
X132043434Y-101552856D01*
X132095374Y-101545759D01*
X132132178Y-101532788D01*
X132183062Y-101489585D01*
X132211986Y-101429446D01*
X132217714Y-101382462D01*
X132213343Y-101340082D01*
X132197525Y-101305488D01*
X132166203Y-101274763D01*
X132115322Y-101243990D01*
X132040824Y-101209252D01*
X132036286Y-101207288D01*
X131969179Y-101176287D01*
X131927768Y-101150862D01*
X131910019Y-101128014D01*
X131913893Y-101104745D01*
X131937357Y-101078056D01*
X131944373Y-101071914D01*
X131991370Y-101048100D01*
X132040067Y-101049103D01*
X132082478Y-101072451D01*
X132110616Y-101115675D01*
X132113231Y-101124160D01*
X132138692Y-101165308D01*
X132170999Y-101185128D01*
X132217714Y-101204770D01*
X132217714Y-101153950D01*
X132203504Y-101080082D01*
X132161325Y-101012327D01*
X132139376Y-100989661D01*
X132089483Y-100960569D01*
X132026033Y-100947400D01*
X131960256Y-100950968D01*
G36*
X132624114Y-100851289D02*
G01*
X132619861Y-100910613D01*
X132614975Y-100945572D01*
X132608205Y-100960820D01*
X132598298Y-100961015D01*
X132595086Y-100959195D01*
X132552356Y-100946015D01*
X132496773Y-100946785D01*
X132440263Y-100960333D01*
X132404918Y-100977861D01*
X132368679Y-101005861D01*
X132342187Y-101037549D01*
X132324001Y-101077813D01*
X132312678Y-101131543D01*
X132306778Y-101203626D01*
X132304857Y-101298951D01*
X132304823Y-101317237D01*
X132304800Y-101522646D01*
X132350509Y-101538580D01*
X132382973Y-101549420D01*
X132400785Y-101554468D01*
X132401309Y-101554514D01*
X132403063Y-101540828D01*
X132404556Y-101503076D01*
X132405674Y-101446224D01*
X132406303Y-101375234D01*
X132406400Y-101332073D01*
X132406602Y-101246973D01*
X132407642Y-101185981D01*
X132410169Y-101144177D01*
X132414836Y-101116642D01*
X132422293Y-101098456D01*
X132433189Y-101084698D01*
X132439993Y-101078073D01*
X132486728Y-101051375D01*
X132537728Y-101049375D01*
X132583999Y-101071955D01*
X132592556Y-101080107D01*
X132605107Y-101095436D01*
X132613812Y-101113618D01*
X132619369Y-101139909D01*
X132622474Y-101179562D01*
X132623824Y-101237832D01*
X132624114Y-101318173D01*
X132624114Y-101522646D01*
X132669823Y-101538580D01*
X132702287Y-101549420D01*
X132720099Y-101554468D01*
X132720623Y-101554514D01*
X132721963Y-101540623D01*
X132723172Y-101501439D01*
X132724199Y-101440700D01*
X132724998Y-101362141D01*
X132725519Y-101269498D01*
X132725714Y-101166509D01*
X132725714Y-100769342D01*
X132678543Y-100749444D01*
X132631371Y-100729547D01*
X132624114Y-100851289D01*
X132624114Y-100851289D01*
G37*
X132624114Y-100851289D02*
X132619861Y-100910613D01*
X132614975Y-100945572D01*
X132608205Y-100960820D01*
X132598298Y-100961015D01*
X132595086Y-100959195D01*
X132552356Y-100946015D01*
X132496773Y-100946785D01*
X132440263Y-100960333D01*
X132404918Y-100977861D01*
X132368679Y-101005861D01*
X132342187Y-101037549D01*
X132324001Y-101077813D01*
X132312678Y-101131543D01*
X132306778Y-101203626D01*
X132304857Y-101298951D01*
X132304823Y-101317237D01*
X132304800Y-101522646D01*
X132350509Y-101538580D01*
X132382973Y-101549420D01*
X132400785Y-101554468D01*
X132401309Y-101554514D01*
X132403063Y-101540828D01*
X132404556Y-101503076D01*
X132405674Y-101446224D01*
X132406303Y-101375234D01*
X132406400Y-101332073D01*
X132406602Y-101246973D01*
X132407642Y-101185981D01*
X132410169Y-101144177D01*
X132414836Y-101116642D01*
X132422293Y-101098456D01*
X132433189Y-101084698D01*
X132439993Y-101078073D01*
X132486728Y-101051375D01*
X132537728Y-101049375D01*
X132583999Y-101071955D01*
X132592556Y-101080107D01*
X132605107Y-101095436D01*
X132613812Y-101113618D01*
X132619369Y-101139909D01*
X132622474Y-101179562D01*
X132623824Y-101237832D01*
X132624114Y-101318173D01*
X132624114Y-101522646D01*
X132669823Y-101538580D01*
X132702287Y-101549420D01*
X132720099Y-101554468D01*
X132720623Y-101554514D01*
X132721963Y-101540623D01*
X132723172Y-101501439D01*
X132724199Y-101440700D01*
X132724998Y-101362141D01*
X132725519Y-101269498D01*
X132725714Y-101166509D01*
X132725714Y-100769342D01*
X132678543Y-100749444D01*
X132631371Y-100729547D01*
X132624114Y-100851289D01*
G36*
X133831697Y-100931239D02*
G01*
X133774473Y-100969735D01*
X133730251Y-101025335D01*
X133703833Y-101096086D01*
X133698490Y-101148162D01*
X133699097Y-101169893D01*
X133704178Y-101186531D01*
X133718145Y-101201437D01*
X133745411Y-101217973D01*
X133790388Y-101239498D01*
X133857489Y-101269374D01*
X133857829Y-101269524D01*
X133919593Y-101297813D01*
X133970241Y-101322933D01*
X134004596Y-101342179D01*
X134017482Y-101352848D01*
X134017486Y-101352934D01*
X134006128Y-101376166D01*
X133979569Y-101401774D01*
X133949077Y-101420221D01*
X133933630Y-101423886D01*
X133891485Y-101411212D01*
X133855192Y-101379471D01*
X133837483Y-101344572D01*
X133820448Y-101318845D01*
X133787078Y-101289546D01*
X133747851Y-101264235D01*
X133713244Y-101250471D01*
X133706007Y-101249714D01*
X133697861Y-101262160D01*
X133697370Y-101293972D01*
X133703357Y-101336866D01*
X133714643Y-101382558D01*
X133730050Y-101422761D01*
X133730829Y-101424322D01*
X133777196Y-101489062D01*
X133837289Y-101533097D01*
X133905535Y-101554711D01*
X133976362Y-101552185D01*
X134044196Y-101523804D01*
X134047212Y-101521808D01*
X134100573Y-101473448D01*
X134135660Y-101410352D01*
X134155078Y-101327387D01*
X134157684Y-101304078D01*
X134162299Y-101194055D01*
X134156767Y-101142748D01*
X134017486Y-101142748D01*
X134015676Y-101174753D01*
X134005778Y-101184093D01*
X133981102Y-101177105D01*
X133942205Y-101160587D01*
X133898725Y-101139881D01*
X133897644Y-101139333D01*
X133860791Y-101119949D01*
X133846000Y-101107013D01*
X133849647Y-101093451D01*
X133865005Y-101075632D01*
X133904077Y-101049845D01*
X133946154Y-101047950D01*
X133983897Y-101066717D01*
X134009966Y-101102915D01*
X134017486Y-101142748D01*
X134156767Y-101142748D01*
X134152806Y-101106027D01*
X134128450Y-101036212D01*
X134094544Y-100987302D01*
X134033347Y-100937878D01*
X133965937Y-100913359D01*
X133897120Y-100911797D01*
X133831697Y-100931239D01*
X133831697Y-100931239D01*
G37*
X133831697Y-100931239D02*
X133774473Y-100969735D01*
X133730251Y-101025335D01*
X133703833Y-101096086D01*
X133698490Y-101148162D01*
X133699097Y-101169893D01*
X133704178Y-101186531D01*
X133718145Y-101201437D01*
X133745411Y-101217973D01*
X133790388Y-101239498D01*
X133857489Y-101269374D01*
X133857829Y-101269524D01*
X133919593Y-101297813D01*
X133970241Y-101322933D01*
X134004596Y-101342179D01*
X134017482Y-101352848D01*
X134017486Y-101352934D01*
X134006128Y-101376166D01*
X133979569Y-101401774D01*
X133949077Y-101420221D01*
X133933630Y-101423886D01*
X133891485Y-101411212D01*
X133855192Y-101379471D01*
X133837483Y-101344572D01*
X133820448Y-101318845D01*
X133787078Y-101289546D01*
X133747851Y-101264235D01*
X133713244Y-101250471D01*
X133706007Y-101249714D01*
X133697861Y-101262160D01*
X133697370Y-101293972D01*
X133703357Y-101336866D01*
X133714643Y-101382558D01*
X133730050Y-101422761D01*
X133730829Y-101424322D01*
X133777196Y-101489062D01*
X133837289Y-101533097D01*
X133905535Y-101554711D01*
X133976362Y-101552185D01*
X134044196Y-101523804D01*
X134047212Y-101521808D01*
X134100573Y-101473448D01*
X134135660Y-101410352D01*
X134155078Y-101327387D01*
X134157684Y-101304078D01*
X134162299Y-101194055D01*
X134156767Y-101142748D01*
X134017486Y-101142748D01*
X134015676Y-101174753D01*
X134005778Y-101184093D01*
X133981102Y-101177105D01*
X133942205Y-101160587D01*
X133898725Y-101139881D01*
X133897644Y-101139333D01*
X133860791Y-101119949D01*
X133846000Y-101107013D01*
X133849647Y-101093451D01*
X133865005Y-101075632D01*
X133904077Y-101049845D01*
X133946154Y-101047950D01*
X133983897Y-101066717D01*
X134009966Y-101102915D01*
X134017486Y-101142748D01*
X134156767Y-101142748D01*
X134152806Y-101106027D01*
X134128450Y-101036212D01*
X134094544Y-100987302D01*
X134033347Y-100937878D01*
X133965937Y-100913359D01*
X133897120Y-100911797D01*
X133831697Y-100931239D01*
G36*
X134958885Y-100921962D02*
G01*
X134890855Y-100957733D01*
X134840649Y-101015301D01*
X134822815Y-101052312D01*
X134808937Y-101107882D01*
X134801833Y-101178096D01*
X134801160Y-101254727D01*
X134806573Y-101329552D01*
X134817730Y-101394342D01*
X134834286Y-101440873D01*
X134839374Y-101448887D01*
X134899645Y-101508707D01*
X134971231Y-101544535D01*
X135048908Y-101555020D01*
X135127452Y-101538810D01*
X135149311Y-101529092D01*
X135191878Y-101499143D01*
X135229237Y-101459433D01*
X135232768Y-101454397D01*
X135247119Y-101430124D01*
X135256606Y-101404178D01*
X135262210Y-101370022D01*
X135264914Y-101321119D01*
X135265701Y-101250935D01*
X135265714Y-101235200D01*
X135265678Y-101230192D01*
X135120571Y-101230192D01*
X135119727Y-101296430D01*
X135116404Y-101340386D01*
X135109417Y-101368779D01*
X135097584Y-101388325D01*
X135091543Y-101394857D01*
X135056814Y-101419680D01*
X135023097Y-101418548D01*
X134989005Y-101397016D01*
X134968671Y-101374029D01*
X134956629Y-101340478D01*
X134949866Y-101287569D01*
X134949402Y-101281399D01*
X134948248Y-101185513D01*
X134960312Y-101114299D01*
X134985430Y-101068194D01*
X135023440Y-101047635D01*
X135037008Y-101046514D01*
X135072636Y-101052152D01*
X135097006Y-101071686D01*
X135111907Y-101109042D01*
X135119125Y-101168150D01*
X135120571Y-101230192D01*
X135265678Y-101230192D01*
X135265174Y-101160413D01*
X135262904Y-101108159D01*
X135257932Y-101071949D01*
X135249287Y-101045299D01*
X135235995Y-101021722D01*
X135233057Y-101017338D01*
X135183687Y-100958249D01*
X135129891Y-100923947D01*
X135064398Y-100910331D01*
X135042158Y-100909665D01*
X134958885Y-100921962D01*
X134958885Y-100921962D01*
G37*
X134958885Y-100921962D02*
X134890855Y-100957733D01*
X134840649Y-101015301D01*
X134822815Y-101052312D01*
X134808937Y-101107882D01*
X134801833Y-101178096D01*
X134801160Y-101254727D01*
X134806573Y-101329552D01*
X134817730Y-101394342D01*
X134834286Y-101440873D01*
X134839374Y-101448887D01*
X134899645Y-101508707D01*
X134971231Y-101544535D01*
X135048908Y-101555020D01*
X135127452Y-101538810D01*
X135149311Y-101529092D01*
X135191878Y-101499143D01*
X135229237Y-101459433D01*
X135232768Y-101454397D01*
X135247119Y-101430124D01*
X135256606Y-101404178D01*
X135262210Y-101370022D01*
X135264914Y-101321119D01*
X135265701Y-101250935D01*
X135265714Y-101235200D01*
X135265678Y-101230192D01*
X135120571Y-101230192D01*
X135119727Y-101296430D01*
X135116404Y-101340386D01*
X135109417Y-101368779D01*
X135097584Y-101388325D01*
X135091543Y-101394857D01*
X135056814Y-101419680D01*
X135023097Y-101418548D01*
X134989005Y-101397016D01*
X134968671Y-101374029D01*
X134956629Y-101340478D01*
X134949866Y-101287569D01*
X134949402Y-101281399D01*
X134948248Y-101185513D01*
X134960312Y-101114299D01*
X134985430Y-101068194D01*
X135023440Y-101047635D01*
X135037008Y-101046514D01*
X135072636Y-101052152D01*
X135097006Y-101071686D01*
X135111907Y-101109042D01*
X135119125Y-101168150D01*
X135120571Y-101230192D01*
X135265678Y-101230192D01*
X135265174Y-101160413D01*
X135262904Y-101108159D01*
X135257932Y-101071949D01*
X135249287Y-101045299D01*
X135235995Y-101021722D01*
X135233057Y-101017338D01*
X135183687Y-100958249D01*
X135129891Y-100923947D01*
X135064398Y-100910331D01*
X135042158Y-100909665D01*
X134958885Y-100921962D01*
G36*
X133283907Y-100927780D02*
G01*
X133237328Y-100954723D01*
X133204943Y-100981466D01*
X133181258Y-101009484D01*
X133164941Y-101043748D01*
X133154661Y-101089227D01*
X133149086Y-101150892D01*
X133146884Y-101233711D01*
X133146629Y-101293246D01*
X133146629Y-101512391D01*
X133208314Y-101540044D01*
X133270000Y-101567697D01*
X133277257Y-101327670D01*
X133280256Y-101238028D01*
X133283402Y-101172962D01*
X133287299Y-101128026D01*
X133292553Y-101098770D01*
X133299769Y-101080748D01*
X133309550Y-101069511D01*
X133312688Y-101067079D01*
X133360239Y-101048083D01*
X133408303Y-101055600D01*
X133436914Y-101075543D01*
X133448553Y-101089675D01*
X133456609Y-101108220D01*
X133461729Y-101136334D01*
X133464559Y-101179173D01*
X133465744Y-101241895D01*
X133465943Y-101307261D01*
X133465982Y-101389268D01*
X133467386Y-101447316D01*
X133472086Y-101486465D01*
X133482013Y-101511780D01*
X133499097Y-101528323D01*
X133525268Y-101541156D01*
X133560225Y-101554491D01*
X133598404Y-101569007D01*
X133593859Y-101311389D01*
X133592029Y-101218519D01*
X133589888Y-101149889D01*
X133586819Y-101100711D01*
X133582206Y-101066198D01*
X133575432Y-101041562D01*
X133565881Y-101022016D01*
X133554366Y-101004770D01*
X133498810Y-100949680D01*
X133431020Y-100917822D01*
X133357287Y-100910191D01*
X133283907Y-100927780D01*
X133283907Y-100927780D01*
G37*
X133283907Y-100927780D02*
X133237328Y-100954723D01*
X133204943Y-100981466D01*
X133181258Y-101009484D01*
X133164941Y-101043748D01*
X133154661Y-101089227D01*
X133149086Y-101150892D01*
X133146884Y-101233711D01*
X133146629Y-101293246D01*
X133146629Y-101512391D01*
X133208314Y-101540044D01*
X133270000Y-101567697D01*
X133277257Y-101327670D01*
X133280256Y-101238028D01*
X133283402Y-101172962D01*
X133287299Y-101128026D01*
X133292553Y-101098770D01*
X133299769Y-101080748D01*
X133309550Y-101069511D01*
X133312688Y-101067079D01*
X133360239Y-101048083D01*
X133408303Y-101055600D01*
X133436914Y-101075543D01*
X133448553Y-101089675D01*
X133456609Y-101108220D01*
X133461729Y-101136334D01*
X133464559Y-101179173D01*
X133465744Y-101241895D01*
X133465943Y-101307261D01*
X133465982Y-101389268D01*
X133467386Y-101447316D01*
X133472086Y-101486465D01*
X133482013Y-101511780D01*
X133499097Y-101528323D01*
X133525268Y-101541156D01*
X133560225Y-101554491D01*
X133598404Y-101569007D01*
X133593859Y-101311389D01*
X133592029Y-101218519D01*
X133589888Y-101149889D01*
X133586819Y-101100711D01*
X133582206Y-101066198D01*
X133575432Y-101041562D01*
X133565881Y-101022016D01*
X133554366Y-101004770D01*
X133498810Y-100949680D01*
X133431020Y-100917822D01*
X133357287Y-100910191D01*
X133283907Y-100927780D01*
G36*
X134400256Y-100919918D02*
G01*
X134344799Y-100947568D01*
X134295852Y-100998480D01*
X134282371Y-101017338D01*
X134267686Y-101042015D01*
X134258158Y-101068816D01*
X134252707Y-101104587D01*
X134250253Y-101156169D01*
X134249714Y-101224267D01*
X134252148Y-101317588D01*
X134260606Y-101387657D01*
X134276826Y-101439931D01*
X134302546Y-101479869D01*
X134339503Y-101512929D01*
X134342218Y-101514886D01*
X134378640Y-101534908D01*
X134422498Y-101544815D01*
X134478276Y-101547257D01*
X134568952Y-101547257D01*
X134568990Y-101635283D01*
X134569834Y-101684308D01*
X134574976Y-101713065D01*
X134588413Y-101730311D01*
X134614142Y-101744808D01*
X134620321Y-101747769D01*
X134649236Y-101761648D01*
X134671624Y-101770414D01*
X134688271Y-101771171D01*
X134699964Y-101761023D01*
X134707490Y-101737073D01*
X134711634Y-101696426D01*
X134713185Y-101636186D01*
X134712929Y-101553455D01*
X134711651Y-101445339D01*
X134711252Y-101413000D01*
X134709815Y-101301524D01*
X134708528Y-101228603D01*
X134569029Y-101228603D01*
X134568245Y-101290499D01*
X134564760Y-101330997D01*
X134556876Y-101357708D01*
X134542895Y-101378244D01*
X134533403Y-101388260D01*
X134494596Y-101417567D01*
X134460237Y-101419952D01*
X134424784Y-101395750D01*
X134423886Y-101394857D01*
X134409461Y-101376153D01*
X134400687Y-101350732D01*
X134396261Y-101311584D01*
X134394882Y-101251697D01*
X134394857Y-101238430D01*
X134398188Y-101155901D01*
X134409031Y-101098691D01*
X134428660Y-101063766D01*
X134458350Y-101048094D01*
X134475509Y-101046514D01*
X134516234Y-101053926D01*
X134544168Y-101078330D01*
X134560983Y-101122980D01*
X134568350Y-101191130D01*
X134569029Y-101228603D01*
X134708528Y-101228603D01*
X134708292Y-101215245D01*
X134706323Y-101150333D01*
X134703550Y-101102958D01*
X134699612Y-101069290D01*
X134694151Y-101045498D01*
X134686808Y-101027753D01*
X134677223Y-101012224D01*
X134673113Y-101006381D01*
X134618595Y-100951185D01*
X134549664Y-100919890D01*
X134469928Y-100911165D01*
X134400256Y-100919918D01*
X134400256Y-100919918D01*
G37*
X134400256Y-100919918D02*
X134344799Y-100947568D01*
X134295852Y-100998480D01*
X134282371Y-101017338D01*
X134267686Y-101042015D01*
X134258158Y-101068816D01*
X134252707Y-101104587D01*
X134250253Y-101156169D01*
X134249714Y-101224267D01*
X134252148Y-101317588D01*
X134260606Y-101387657D01*
X134276826Y-101439931D01*
X134302546Y-101479869D01*
X134339503Y-101512929D01*
X134342218Y-101514886D01*
X134378640Y-101534908D01*
X134422498Y-101544815D01*
X134478276Y-101547257D01*
X134568952Y-101547257D01*
X134568990Y-101635283D01*
X134569834Y-101684308D01*
X134574976Y-101713065D01*
X134588413Y-101730311D01*
X134614142Y-101744808D01*
X134620321Y-101747769D01*
X134649236Y-101761648D01*
X134671624Y-101770414D01*
X134688271Y-101771171D01*
X134699964Y-101761023D01*
X134707490Y-101737073D01*
X134711634Y-101696426D01*
X134713185Y-101636186D01*
X134712929Y-101553455D01*
X134711651Y-101445339D01*
X134711252Y-101413000D01*
X134709815Y-101301524D01*
X134708528Y-101228603D01*
X134569029Y-101228603D01*
X134568245Y-101290499D01*
X134564760Y-101330997D01*
X134556876Y-101357708D01*
X134542895Y-101378244D01*
X134533403Y-101388260D01*
X134494596Y-101417567D01*
X134460237Y-101419952D01*
X134424784Y-101395750D01*
X134423886Y-101394857D01*
X134409461Y-101376153D01*
X134400687Y-101350732D01*
X134396261Y-101311584D01*
X134394882Y-101251697D01*
X134394857Y-101238430D01*
X134398188Y-101155901D01*
X134409031Y-101098691D01*
X134428660Y-101063766D01*
X134458350Y-101048094D01*
X134475509Y-101046514D01*
X134516234Y-101053926D01*
X134544168Y-101078330D01*
X134560983Y-101122980D01*
X134568350Y-101191130D01*
X134569029Y-101228603D01*
X134708528Y-101228603D01*
X134708292Y-101215245D01*
X134706323Y-101150333D01*
X134703550Y-101102958D01*
X134699612Y-101069290D01*
X134694151Y-101045498D01*
X134686808Y-101027753D01*
X134677223Y-101012224D01*
X134673113Y-101006381D01*
X134618595Y-100951185D01*
X134549664Y-100919890D01*
X134469928Y-100911165D01*
X134400256Y-100919918D01*
D11*
X132000000Y-81000000D02*
X164000000Y-81000000D01*
X164000000Y-81000000D02*
X164000000Y-95000000D01*
X164000000Y-95000000D02*
X132000000Y-95000000D01*
X132000000Y-95000000D02*
X132000000Y-81000000D01*
X160750000Y-82500000D02*
G75*
G03X160250000Y-82000000I-500000J0D01*
G01*
X160750000Y-82500000D02*
X162250000Y-93500000D01*
X133250000Y-93500000D02*
G75*
G03X133750000Y-94000000I500000J0D01*
G01*
X161750000Y-94000000D02*
G75*
G03X162250000Y-93500000I0J500000D01*
G01*
X161750000Y-94000000D02*
X133750000Y-94000000D01*
X147750000Y-82000000D02*
X160250000Y-82000000D01*
X147750000Y-82000000D02*
X135250000Y-82000000D01*
X135250000Y-82000000D02*
G75*
G03X134750000Y-82500000I0J-500000D01*
G01*
X133250000Y-93500000D02*
X134750000Y-82500000D01*
D13*
X137122380Y-99436666D02*
X137836666Y-99436666D01*
X137979523Y-99389047D01*
X138074761Y-99293809D01*
X138122380Y-99150952D01*
X138122380Y-99055714D01*
X137217619Y-99865238D02*
X137170000Y-99912857D01*
X137122380Y-100008095D01*
X137122380Y-100246190D01*
X137170000Y-100341428D01*
X137217619Y-100389047D01*
X137312857Y-100436666D01*
X137408095Y-100436666D01*
X137550952Y-100389047D01*
X138122380Y-99817619D01*
X138122380Y-100436666D01*
X163833333Y-95452380D02*
X163833333Y-96166666D01*
X163880952Y-96309523D01*
X163976190Y-96404761D01*
X164119047Y-96452380D01*
X164214285Y-96452380D01*
X162833333Y-96452380D02*
X163404761Y-96452380D01*
X163119047Y-96452380D02*
X163119047Y-95452380D01*
X163214285Y-95595238D01*
X163309523Y-95690476D01*
X163404761Y-95738095D01*
X167797141Y-82368570D02*
X167654284Y-82416189D01*
X167606665Y-82463808D01*
X167559046Y-82559046D01*
X167559046Y-82701903D01*
X167606665Y-82797141D01*
X167654284Y-82844760D01*
X167749522Y-82892379D01*
X168130475Y-82892379D01*
X168130475Y-81892379D01*
X167797141Y-81892379D01*
X167701903Y-81939999D01*
X167654284Y-81987618D01*
X167606665Y-82082856D01*
X167606665Y-82178094D01*
X167654284Y-82273332D01*
X167701903Y-82320951D01*
X167797141Y-82368570D01*
X168130475Y-82368570D01*
X167178094Y-82606665D02*
X166701903Y-82606665D01*
X167273332Y-82892379D02*
X166939999Y-81892379D01*
X166606665Y-82892379D01*
X165701903Y-82797141D02*
X165749522Y-82844760D01*
X165892379Y-82892379D01*
X165987618Y-82892379D01*
X166130475Y-82844760D01*
X166225713Y-82749522D01*
X166273332Y-82654284D01*
X166320951Y-82463808D01*
X166320951Y-82320951D01*
X166273332Y-82130475D01*
X166225713Y-82035237D01*
X166130475Y-81939999D01*
X165987618Y-81892379D01*
X165892379Y-81892379D01*
X165749522Y-81939999D01*
X165701903Y-81987618D01*
X165273332Y-82892379D02*
X165273332Y-81892379D01*
X164701903Y-82892379D02*
X165130475Y-82320951D01*
X164701903Y-81892379D02*
X165273332Y-82463808D01*
D14*
X150095238Y-92809523D02*
X149809523Y-92904761D01*
X149333333Y-92904761D01*
X149142857Y-92809523D01*
X149047619Y-92714285D01*
X148952380Y-92523809D01*
X148952380Y-92333333D01*
X149047619Y-92142857D01*
X149142857Y-92047619D01*
X149333333Y-91952380D01*
X149714285Y-91857142D01*
X149904761Y-91761904D01*
X150000000Y-91666666D01*
X150095238Y-91476190D01*
X150095238Y-91285714D01*
X150000000Y-91095238D01*
X149904761Y-91000000D01*
X149714285Y-90904761D01*
X149238095Y-90904761D01*
X148952380Y-91000000D01*
X148095238Y-92904761D02*
X148095238Y-90904761D01*
X146761904Y-90904761D02*
X146380952Y-90904761D01*
X146190476Y-91000000D01*
X146000000Y-91190476D01*
X145904761Y-91571428D01*
X145904761Y-92238095D01*
X146000000Y-92619047D01*
X146190476Y-92809523D01*
X146380952Y-92904761D01*
X146761904Y-92904761D01*
X146952380Y-92809523D01*
X147142857Y-92619047D01*
X147238095Y-92238095D01*
X147238095Y-91571428D01*
X147142857Y-91190476D01*
X146952380Y-91000000D01*
X146761904Y-90904761D01*
M02*
