G04 #@! TF.GenerationSoftware,KiCad,Pcbnew,(5.1.4)-1*
G04 #@! TF.CreationDate,2019-10-27T01:37:59+02:00*
G04 #@! TF.ProjectId,SIOSocket,53494f53-6f63-46b6-9574-2e6b69636164,rev?*
G04 #@! TF.SameCoordinates,Original*
G04 #@! TF.FileFunction,Copper,L2,Bot*
G04 #@! TF.FilePolarity,Positive*
%FSLAX46Y46*%
G04 Gerber Fmt 4.6, Leading zero omitted, Abs format (unit mm)*
G04 Created by KiCad (PCBNEW (5.1.4)-1) date 2019-10-27 01:37:59*
%MOMM*%
%LPD*%
G04 APERTURE LIST*
%ADD10R,1.700000X1.700000*%
%ADD11O,1.700000X1.700000*%
%ADD12C,1.700000*%
%ADD13C,0.250000*%
%ADD14C,0.350000*%
%ADD15C,0.254000*%
G04 APERTURE END LIST*
D10*
X140000000Y-98500000D03*
D11*
X140000000Y-101040000D03*
X142540000Y-98500000D03*
X142540000Y-101040000D03*
X145080000Y-98500000D03*
X145080000Y-101040000D03*
X147620000Y-98500000D03*
X147620000Y-101040000D03*
X150160000Y-98500000D03*
X150160000Y-101040000D03*
X152700000Y-98500000D03*
X152700000Y-101040000D03*
X155240000Y-98500000D03*
X155240000Y-101040000D03*
D12*
X139000000Y-86500000D03*
X142500000Y-86500000D03*
X146000000Y-86500000D03*
X149500000Y-86500000D03*
X153000000Y-86500000D03*
X156500000Y-86500000D03*
X137250000Y-89500000D03*
X140750000Y-89500000D03*
X144250000Y-89500000D03*
X147750000Y-89500000D03*
X151250000Y-89500000D03*
X154750000Y-89500000D03*
X158250000Y-89500000D03*
D13*
X137250000Y-90577630D02*
X137250000Y-89500000D01*
X137250000Y-96850000D02*
X137250000Y-90577630D01*
X138900000Y-98500000D02*
X137250000Y-96850000D01*
X140000000Y-98500000D02*
X138900000Y-98500000D01*
X137922370Y-86500000D02*
X139000000Y-86500000D01*
X136074999Y-97114999D02*
X136074999Y-97074999D01*
X140000000Y-101040000D02*
X136074999Y-97114999D01*
X136074999Y-97074999D02*
X135500000Y-96500000D01*
X135500000Y-96500000D02*
X135500000Y-88000000D01*
X137000000Y-86500000D02*
X139000000Y-86500000D01*
X135500000Y-88000000D02*
X137000000Y-86500000D01*
X142540000Y-98500000D02*
X142540000Y-97040000D01*
X142540000Y-97040000D02*
X139500000Y-94000000D01*
X139500000Y-90750000D02*
X140750000Y-89500000D01*
X139500000Y-94000000D02*
X139500000Y-90750000D01*
X145080000Y-90330000D02*
X144250000Y-89500000D01*
X145080000Y-98500000D02*
X145080000Y-90330000D01*
X147620000Y-89630000D02*
X147750000Y-89500000D01*
X147620000Y-98500000D02*
X147620000Y-89630000D01*
X149500000Y-87577630D02*
X149500000Y-86500000D01*
X148984999Y-98874003D02*
X148984999Y-90515001D01*
X147620000Y-101040000D02*
X147620000Y-100239002D01*
X147620000Y-100239002D02*
X148984999Y-98874003D01*
X149500000Y-90000000D02*
X149500000Y-86500000D01*
X148984999Y-90515001D02*
X149500000Y-90000000D01*
X151250000Y-97410000D02*
X151250000Y-89500000D01*
X150160000Y-98500000D02*
X151250000Y-97410000D01*
X154750000Y-96450000D02*
X154750000Y-89500000D01*
X152700000Y-98500000D02*
X154750000Y-96450000D01*
X158250000Y-95490000D02*
X158250000Y-89500000D01*
X155240000Y-98500000D02*
X158250000Y-95490000D01*
X143715001Y-99864999D02*
X143715001Y-92715001D01*
X142540000Y-101040000D02*
X143715001Y-99864999D01*
X142500000Y-91500000D02*
X142500000Y-86500000D01*
X143715001Y-92715001D02*
X142500000Y-91500000D01*
X142500000Y-86500000D02*
X146000000Y-86500000D01*
X144230001Y-101889999D02*
X145080000Y-101040000D01*
X143389999Y-101889999D02*
X144230001Y-101889999D01*
X142540000Y-101040000D02*
X143389999Y-101889999D01*
D14*
X153000000Y-85000000D02*
X153000000Y-86500000D01*
X153500000Y-84500000D02*
X153000000Y-85000000D01*
X152135011Y-103015011D02*
X156145243Y-103015011D01*
X150160000Y-101040000D02*
X152135011Y-103015011D01*
X156145243Y-103015011D02*
X160650010Y-98510244D01*
X160650010Y-98510244D02*
X160650010Y-87730758D01*
X160650010Y-87730758D02*
X157419252Y-84500000D01*
X157419252Y-84500000D02*
X153500000Y-84500000D01*
X153549999Y-101889999D02*
X152700000Y-101040000D01*
X156500000Y-86500000D02*
X158500000Y-86500000D01*
X158500000Y-86500000D02*
X160000000Y-88000000D01*
X160000000Y-88000000D02*
X160000000Y-98241002D01*
X160000000Y-98241002D02*
X155876001Y-102365001D01*
X155876001Y-102365001D02*
X154025001Y-102365001D01*
X154025001Y-102365001D02*
X153549999Y-101889999D01*
D15*
G36*
X169873000Y-103873000D02*
G01*
X126127000Y-103873000D01*
X126127000Y-87737314D01*
X126332905Y-87737314D01*
X126332905Y-88262686D01*
X126435400Y-88777963D01*
X126636451Y-89263343D01*
X126928332Y-89700174D01*
X127299826Y-90071668D01*
X127736657Y-90363549D01*
X128222037Y-90564600D01*
X128737314Y-90667095D01*
X129262686Y-90667095D01*
X129777963Y-90564600D01*
X130263343Y-90363549D01*
X130700174Y-90071668D01*
X131071668Y-89700174D01*
X131363549Y-89263343D01*
X131564600Y-88777963D01*
X131667095Y-88262686D01*
X131667095Y-88000000D01*
X134736324Y-88000000D01*
X134740001Y-88037332D01*
X134740000Y-96462678D01*
X134736324Y-96500000D01*
X134740000Y-96537322D01*
X134740000Y-96537332D01*
X134750997Y-96648985D01*
X134791574Y-96782752D01*
X134794454Y-96792246D01*
X134865026Y-96924276D01*
X134899280Y-96966014D01*
X134959999Y-97040001D01*
X134989002Y-97063803D01*
X135411952Y-97486755D01*
X135440025Y-97539275D01*
X135473448Y-97580001D01*
X135534998Y-97655000D01*
X135564002Y-97678803D01*
X138559203Y-100674005D01*
X138536487Y-100748889D01*
X138507815Y-101040000D01*
X138536487Y-101331111D01*
X138621401Y-101611034D01*
X138759294Y-101869014D01*
X138944866Y-102095134D01*
X139170986Y-102280706D01*
X139428966Y-102418599D01*
X139708889Y-102503513D01*
X139927050Y-102525000D01*
X140072950Y-102525000D01*
X140291111Y-102503513D01*
X140571034Y-102418599D01*
X140829014Y-102280706D01*
X141055134Y-102095134D01*
X141240706Y-101869014D01*
X141275201Y-101804477D01*
X141344822Y-101921355D01*
X141539731Y-102137588D01*
X141773080Y-102311641D01*
X142035901Y-102436825D01*
X142183110Y-102481476D01*
X142413000Y-102360155D01*
X142413000Y-101167000D01*
X142667000Y-101167000D01*
X142667000Y-102360155D01*
X142896890Y-102481476D01*
X143044099Y-102436825D01*
X143306920Y-102311641D01*
X143540269Y-102137588D01*
X143735178Y-101921355D01*
X143810000Y-101795745D01*
X143884822Y-101921355D01*
X144079731Y-102137588D01*
X144313080Y-102311641D01*
X144575901Y-102436825D01*
X144723110Y-102481476D01*
X144953000Y-102360155D01*
X144953000Y-101167000D01*
X142667000Y-101167000D01*
X142413000Y-101167000D01*
X142393000Y-101167000D01*
X142393000Y-100913000D01*
X142413000Y-100913000D01*
X142413000Y-100893000D01*
X142667000Y-100893000D01*
X142667000Y-100913000D01*
X144953000Y-100913000D01*
X144953000Y-100893000D01*
X145207000Y-100893000D01*
X145207000Y-100913000D01*
X145227000Y-100913000D01*
X145227000Y-101167000D01*
X145207000Y-101167000D01*
X145207000Y-102360155D01*
X145436890Y-102481476D01*
X145584099Y-102436825D01*
X145846920Y-102311641D01*
X146080269Y-102137588D01*
X146275178Y-101921355D01*
X146344799Y-101804477D01*
X146379294Y-101869014D01*
X146564866Y-102095134D01*
X146790986Y-102280706D01*
X147048966Y-102418599D01*
X147328889Y-102503513D01*
X147547050Y-102525000D01*
X147692950Y-102525000D01*
X147911111Y-102503513D01*
X148191034Y-102418599D01*
X148449014Y-102280706D01*
X148675134Y-102095134D01*
X148860706Y-101869014D01*
X148890000Y-101814209D01*
X148919294Y-101869014D01*
X149104866Y-102095134D01*
X149330986Y-102280706D01*
X149588966Y-102418599D01*
X149868889Y-102503513D01*
X150087050Y-102525000D01*
X150232950Y-102525000D01*
X150451111Y-102503513D01*
X150471742Y-102497255D01*
X151534116Y-103559629D01*
X151559483Y-103590539D01*
X151627221Y-103646130D01*
X151682821Y-103691760D01*
X151728297Y-103716067D01*
X151823538Y-103766974D01*
X151976223Y-103813291D01*
X152095220Y-103825011D01*
X152095222Y-103825011D01*
X152135010Y-103828930D01*
X152174798Y-103825011D01*
X156105455Y-103825011D01*
X156145243Y-103828930D01*
X156185031Y-103825011D01*
X156185034Y-103825011D01*
X156304031Y-103813291D01*
X156456716Y-103766974D01*
X156597432Y-103691760D01*
X156720771Y-103590539D01*
X156746143Y-103559623D01*
X161194629Y-99111138D01*
X161225538Y-99085772D01*
X161326759Y-98962433D01*
X161354071Y-98911336D01*
X161401973Y-98821718D01*
X161448290Y-98669032D01*
X161463929Y-98510244D01*
X161460010Y-98470453D01*
X161460010Y-87770546D01*
X161463283Y-87737314D01*
X164332905Y-87737314D01*
X164332905Y-88262686D01*
X164435400Y-88777963D01*
X164636451Y-89263343D01*
X164928332Y-89700174D01*
X165299826Y-90071668D01*
X165736657Y-90363549D01*
X166222037Y-90564600D01*
X166737314Y-90667095D01*
X167262686Y-90667095D01*
X167777963Y-90564600D01*
X168263343Y-90363549D01*
X168700174Y-90071668D01*
X169071668Y-89700174D01*
X169363549Y-89263343D01*
X169564600Y-88777963D01*
X169667095Y-88262686D01*
X169667095Y-87737314D01*
X169564600Y-87222037D01*
X169363549Y-86736657D01*
X169071668Y-86299826D01*
X168700174Y-85928332D01*
X168263343Y-85636451D01*
X167777963Y-85435400D01*
X167262686Y-85332905D01*
X166737314Y-85332905D01*
X166222037Y-85435400D01*
X165736657Y-85636451D01*
X165299826Y-85928332D01*
X164928332Y-86299826D01*
X164636451Y-86736657D01*
X164435400Y-87222037D01*
X164332905Y-87737314D01*
X161463283Y-87737314D01*
X161463929Y-87730758D01*
X161459770Y-87688528D01*
X161448290Y-87571970D01*
X161401973Y-87419285D01*
X161326759Y-87278569D01*
X161225538Y-87155230D01*
X161194628Y-87129863D01*
X158020152Y-83955388D01*
X157994780Y-83924472D01*
X157871441Y-83823251D01*
X157730725Y-83748037D01*
X157578040Y-83701720D01*
X157459043Y-83690000D01*
X157459040Y-83690000D01*
X157419252Y-83686081D01*
X157379464Y-83690000D01*
X153539788Y-83690000D01*
X153500000Y-83686081D01*
X153460212Y-83690000D01*
X153460209Y-83690000D01*
X153341212Y-83701720D01*
X153188527Y-83748037D01*
X153047811Y-83823251D01*
X152924472Y-83924472D01*
X152899100Y-83955388D01*
X152455388Y-84399100D01*
X152424472Y-84424472D01*
X152362489Y-84500000D01*
X152323251Y-84547811D01*
X152283049Y-84623025D01*
X152248037Y-84688528D01*
X152201720Y-84841213D01*
X152190790Y-84952189D01*
X152186081Y-85000000D01*
X152190000Y-85039789D01*
X152190000Y-85255230D01*
X152053368Y-85346525D01*
X151846525Y-85553368D01*
X151684010Y-85796589D01*
X151572068Y-86066842D01*
X151515000Y-86353740D01*
X151515000Y-86646260D01*
X151572068Y-86933158D01*
X151684010Y-87203411D01*
X151846525Y-87446632D01*
X152053368Y-87653475D01*
X152296589Y-87815990D01*
X152566842Y-87927932D01*
X152853740Y-87985000D01*
X153146260Y-87985000D01*
X153433158Y-87927932D01*
X153703411Y-87815990D01*
X153946632Y-87653475D01*
X154153475Y-87446632D01*
X154315990Y-87203411D01*
X154427932Y-86933158D01*
X154485000Y-86646260D01*
X154485000Y-86353740D01*
X154427932Y-86066842D01*
X154315990Y-85796589D01*
X154153475Y-85553368D01*
X153946632Y-85346525D01*
X153891968Y-85310000D01*
X155608032Y-85310000D01*
X155553368Y-85346525D01*
X155346525Y-85553368D01*
X155184010Y-85796589D01*
X155072068Y-86066842D01*
X155015000Y-86353740D01*
X155015000Y-86646260D01*
X155072068Y-86933158D01*
X155184010Y-87203411D01*
X155346525Y-87446632D01*
X155553368Y-87653475D01*
X155796589Y-87815990D01*
X156066842Y-87927932D01*
X156353740Y-87985000D01*
X156646260Y-87985000D01*
X156933158Y-87927932D01*
X157203411Y-87815990D01*
X157446632Y-87653475D01*
X157653475Y-87446632D01*
X157744770Y-87310000D01*
X158164488Y-87310000D01*
X159190000Y-88335513D01*
X159190000Y-88342094D01*
X158953411Y-88184010D01*
X158683158Y-88072068D01*
X158396260Y-88015000D01*
X158103740Y-88015000D01*
X157816842Y-88072068D01*
X157546589Y-88184010D01*
X157303368Y-88346525D01*
X157096525Y-88553368D01*
X156934010Y-88796589D01*
X156822068Y-89066842D01*
X156765000Y-89353740D01*
X156765000Y-89646260D01*
X156822068Y-89933158D01*
X156934010Y-90203411D01*
X157096525Y-90446632D01*
X157303368Y-90653475D01*
X157490001Y-90778179D01*
X157490000Y-95175198D01*
X155605996Y-97059203D01*
X155531111Y-97036487D01*
X155312950Y-97015000D01*
X155259802Y-97015000D01*
X155261004Y-97013798D01*
X155290001Y-96990001D01*
X155384974Y-96874276D01*
X155455546Y-96742247D01*
X155499003Y-96598986D01*
X155510000Y-96487333D01*
X155510000Y-96487323D01*
X155513676Y-96450000D01*
X155510000Y-96412677D01*
X155510000Y-90778178D01*
X155696632Y-90653475D01*
X155903475Y-90446632D01*
X156065990Y-90203411D01*
X156177932Y-89933158D01*
X156235000Y-89646260D01*
X156235000Y-89353740D01*
X156177932Y-89066842D01*
X156065990Y-88796589D01*
X155903475Y-88553368D01*
X155696632Y-88346525D01*
X155453411Y-88184010D01*
X155183158Y-88072068D01*
X154896260Y-88015000D01*
X154603740Y-88015000D01*
X154316842Y-88072068D01*
X154046589Y-88184010D01*
X153803368Y-88346525D01*
X153596525Y-88553368D01*
X153434010Y-88796589D01*
X153322068Y-89066842D01*
X153265000Y-89353740D01*
X153265000Y-89646260D01*
X153322068Y-89933158D01*
X153434010Y-90203411D01*
X153596525Y-90446632D01*
X153803368Y-90653475D01*
X153990001Y-90778179D01*
X153990000Y-96135198D01*
X153065996Y-97059203D01*
X152991111Y-97036487D01*
X152772950Y-97015000D01*
X152627050Y-97015000D01*
X152408889Y-97036487D01*
X152128966Y-97121401D01*
X152010000Y-97184990D01*
X152010000Y-90778178D01*
X152196632Y-90653475D01*
X152403475Y-90446632D01*
X152565990Y-90203411D01*
X152677932Y-89933158D01*
X152735000Y-89646260D01*
X152735000Y-89353740D01*
X152677932Y-89066842D01*
X152565990Y-88796589D01*
X152403475Y-88553368D01*
X152196632Y-88346525D01*
X151953411Y-88184010D01*
X151683158Y-88072068D01*
X151396260Y-88015000D01*
X151103740Y-88015000D01*
X150816842Y-88072068D01*
X150546589Y-88184010D01*
X150303368Y-88346525D01*
X150260000Y-88389893D01*
X150260000Y-87778178D01*
X150446632Y-87653475D01*
X150653475Y-87446632D01*
X150815990Y-87203411D01*
X150927932Y-86933158D01*
X150985000Y-86646260D01*
X150985000Y-86353740D01*
X150927932Y-86066842D01*
X150815990Y-85796589D01*
X150653475Y-85553368D01*
X150446632Y-85346525D01*
X150203411Y-85184010D01*
X149933158Y-85072068D01*
X149646260Y-85015000D01*
X149353740Y-85015000D01*
X149066842Y-85072068D01*
X148796589Y-85184010D01*
X148553368Y-85346525D01*
X148346525Y-85553368D01*
X148184010Y-85796589D01*
X148072068Y-86066842D01*
X148015000Y-86353740D01*
X148015000Y-86646260D01*
X148072068Y-86933158D01*
X148184010Y-87203411D01*
X148346525Y-87446632D01*
X148553368Y-87653475D01*
X148740001Y-87778179D01*
X148740000Y-88389893D01*
X148696632Y-88346525D01*
X148453411Y-88184010D01*
X148183158Y-88072068D01*
X147896260Y-88015000D01*
X147603740Y-88015000D01*
X147316842Y-88072068D01*
X147046589Y-88184010D01*
X146803368Y-88346525D01*
X146596525Y-88553368D01*
X146434010Y-88796589D01*
X146322068Y-89066842D01*
X146265000Y-89353740D01*
X146265000Y-89646260D01*
X146322068Y-89933158D01*
X146434010Y-90203411D01*
X146596525Y-90446632D01*
X146803368Y-90653475D01*
X146860001Y-90691316D01*
X146860000Y-97222405D01*
X146790986Y-97259294D01*
X146564866Y-97444866D01*
X146379294Y-97670986D01*
X146350000Y-97725791D01*
X146320706Y-97670986D01*
X146135134Y-97444866D01*
X145909014Y-97259294D01*
X145840000Y-97222405D01*
X145840000Y-90367322D01*
X145843676Y-90329999D01*
X145840000Y-90292676D01*
X145840000Y-90292667D01*
X145829003Y-90181014D01*
X145785546Y-90037753D01*
X145714974Y-89905724D01*
X145689551Y-89874746D01*
X145735000Y-89646260D01*
X145735000Y-89353740D01*
X145677932Y-89066842D01*
X145565990Y-88796589D01*
X145403475Y-88553368D01*
X145196632Y-88346525D01*
X144953411Y-88184010D01*
X144683158Y-88072068D01*
X144396260Y-88015000D01*
X144103740Y-88015000D01*
X143816842Y-88072068D01*
X143546589Y-88184010D01*
X143303368Y-88346525D01*
X143096525Y-88553368D01*
X142934010Y-88796589D01*
X142822068Y-89066842D01*
X142765000Y-89353740D01*
X142765000Y-89646260D01*
X142822068Y-89933158D01*
X142934010Y-90203411D01*
X143096525Y-90446632D01*
X143303368Y-90653475D01*
X143546589Y-90815990D01*
X143816842Y-90927932D01*
X144103740Y-90985000D01*
X144320001Y-90985000D01*
X144320000Y-97222405D01*
X144250986Y-97259294D01*
X144024866Y-97444866D01*
X143839294Y-97670986D01*
X143810000Y-97725791D01*
X143780706Y-97670986D01*
X143595134Y-97444866D01*
X143369014Y-97259294D01*
X143300000Y-97222405D01*
X143300000Y-97077322D01*
X143303676Y-97039999D01*
X143300000Y-97002676D01*
X143300000Y-97002667D01*
X143289003Y-96891014D01*
X143245546Y-96747753D01*
X143174974Y-96615724D01*
X143080001Y-96499999D01*
X143051003Y-96476201D01*
X140260000Y-93685199D01*
X140260000Y-91064801D01*
X140383592Y-90941209D01*
X140603740Y-90985000D01*
X140896260Y-90985000D01*
X141183158Y-90927932D01*
X141453411Y-90815990D01*
X141696632Y-90653475D01*
X141903475Y-90446632D01*
X142065990Y-90203411D01*
X142177932Y-89933158D01*
X142235000Y-89646260D01*
X142235000Y-89353740D01*
X142177932Y-89066842D01*
X142065990Y-88796589D01*
X141903475Y-88553368D01*
X141696632Y-88346525D01*
X141453411Y-88184010D01*
X141183158Y-88072068D01*
X140896260Y-88015000D01*
X140603740Y-88015000D01*
X140316842Y-88072068D01*
X140046589Y-88184010D01*
X139803368Y-88346525D01*
X139596525Y-88553368D01*
X139434010Y-88796589D01*
X139322068Y-89066842D01*
X139265000Y-89353740D01*
X139265000Y-89646260D01*
X139308791Y-89866408D01*
X138988998Y-90186201D01*
X138960000Y-90209999D01*
X138936202Y-90238997D01*
X138936201Y-90238998D01*
X138865026Y-90325724D01*
X138794454Y-90457754D01*
X138750998Y-90601015D01*
X138736324Y-90750000D01*
X138740001Y-90787332D01*
X138740000Y-93962677D01*
X138736324Y-94000000D01*
X138740000Y-94037322D01*
X138740000Y-94037332D01*
X138750997Y-94148985D01*
X138794454Y-94292246D01*
X138865026Y-94424276D01*
X138904871Y-94472826D01*
X138959999Y-94540001D01*
X138989003Y-94563804D01*
X141696434Y-97271236D01*
X141484866Y-97444866D01*
X141460393Y-97474687D01*
X141439502Y-97405820D01*
X141380537Y-97295506D01*
X141301185Y-97198815D01*
X141204494Y-97119463D01*
X141094180Y-97060498D01*
X140974482Y-97024188D01*
X140850000Y-97011928D01*
X139150000Y-97011928D01*
X139025518Y-97024188D01*
X138905820Y-97060498D01*
X138795506Y-97119463D01*
X138698815Y-97198815D01*
X138687457Y-97212655D01*
X138010000Y-96535199D01*
X138010000Y-90778178D01*
X138196632Y-90653475D01*
X138403475Y-90446632D01*
X138565990Y-90203411D01*
X138677932Y-89933158D01*
X138735000Y-89646260D01*
X138735000Y-89353740D01*
X138677932Y-89066842D01*
X138565990Y-88796589D01*
X138403475Y-88553368D01*
X138196632Y-88346525D01*
X137953411Y-88184010D01*
X137683158Y-88072068D01*
X137396260Y-88015000D01*
X137103740Y-88015000D01*
X136816842Y-88072068D01*
X136546589Y-88184010D01*
X136303368Y-88346525D01*
X136260000Y-88389893D01*
X136260000Y-88314801D01*
X137314802Y-87260000D01*
X137721822Y-87260000D01*
X137846525Y-87446632D01*
X138053368Y-87653475D01*
X138296589Y-87815990D01*
X138566842Y-87927932D01*
X138853740Y-87985000D01*
X139146260Y-87985000D01*
X139433158Y-87927932D01*
X139703411Y-87815990D01*
X139946632Y-87653475D01*
X140071710Y-87528397D01*
X141651208Y-87528397D01*
X141728843Y-87777472D01*
X141992883Y-87903371D01*
X142276411Y-87975339D01*
X142568531Y-87990611D01*
X142858019Y-87948599D01*
X143133747Y-87850919D01*
X143271157Y-87777472D01*
X143348792Y-87528397D01*
X145151208Y-87528397D01*
X145228843Y-87777472D01*
X145492883Y-87903371D01*
X145776411Y-87975339D01*
X146068531Y-87990611D01*
X146358019Y-87948599D01*
X146633747Y-87850919D01*
X146771157Y-87777472D01*
X146848792Y-87528397D01*
X146000000Y-86679605D01*
X145151208Y-87528397D01*
X143348792Y-87528397D01*
X142500000Y-86679605D01*
X141651208Y-87528397D01*
X140071710Y-87528397D01*
X140153475Y-87446632D01*
X140315990Y-87203411D01*
X140427932Y-86933158D01*
X140485000Y-86646260D01*
X140485000Y-86568531D01*
X141009389Y-86568531D01*
X141051401Y-86858019D01*
X141149081Y-87133747D01*
X141222528Y-87271157D01*
X141471603Y-87348792D01*
X142320395Y-86500000D01*
X142679605Y-86500000D01*
X143528397Y-87348792D01*
X143777472Y-87271157D01*
X143903371Y-87007117D01*
X143975339Y-86723589D01*
X143983445Y-86568531D01*
X144509389Y-86568531D01*
X144551401Y-86858019D01*
X144649081Y-87133747D01*
X144722528Y-87271157D01*
X144971603Y-87348792D01*
X145820395Y-86500000D01*
X146179605Y-86500000D01*
X147028397Y-87348792D01*
X147277472Y-87271157D01*
X147403371Y-87007117D01*
X147475339Y-86723589D01*
X147490611Y-86431469D01*
X147448599Y-86141981D01*
X147350919Y-85866253D01*
X147277472Y-85728843D01*
X147028397Y-85651208D01*
X146179605Y-86500000D01*
X145820395Y-86500000D01*
X144971603Y-85651208D01*
X144722528Y-85728843D01*
X144596629Y-85992883D01*
X144524661Y-86276411D01*
X144509389Y-86568531D01*
X143983445Y-86568531D01*
X143990611Y-86431469D01*
X143948599Y-86141981D01*
X143850919Y-85866253D01*
X143777472Y-85728843D01*
X143528397Y-85651208D01*
X142679605Y-86500000D01*
X142320395Y-86500000D01*
X141471603Y-85651208D01*
X141222528Y-85728843D01*
X141096629Y-85992883D01*
X141024661Y-86276411D01*
X141009389Y-86568531D01*
X140485000Y-86568531D01*
X140485000Y-86353740D01*
X140427932Y-86066842D01*
X140315990Y-85796589D01*
X140153475Y-85553368D01*
X140071710Y-85471603D01*
X141651208Y-85471603D01*
X142500000Y-86320395D01*
X143348792Y-85471603D01*
X145151208Y-85471603D01*
X146000000Y-86320395D01*
X146848792Y-85471603D01*
X146771157Y-85222528D01*
X146507117Y-85096629D01*
X146223589Y-85024661D01*
X145931469Y-85009389D01*
X145641981Y-85051401D01*
X145366253Y-85149081D01*
X145228843Y-85222528D01*
X145151208Y-85471603D01*
X143348792Y-85471603D01*
X143271157Y-85222528D01*
X143007117Y-85096629D01*
X142723589Y-85024661D01*
X142431469Y-85009389D01*
X142141981Y-85051401D01*
X141866253Y-85149081D01*
X141728843Y-85222528D01*
X141651208Y-85471603D01*
X140071710Y-85471603D01*
X139946632Y-85346525D01*
X139703411Y-85184010D01*
X139433158Y-85072068D01*
X139146260Y-85015000D01*
X138853740Y-85015000D01*
X138566842Y-85072068D01*
X138296589Y-85184010D01*
X138053368Y-85346525D01*
X137846525Y-85553368D01*
X137721822Y-85740000D01*
X137037322Y-85740000D01*
X136999999Y-85736324D01*
X136962676Y-85740000D01*
X136962667Y-85740000D01*
X136851014Y-85750997D01*
X136707753Y-85794454D01*
X136575724Y-85865026D01*
X136459999Y-85959999D01*
X136436201Y-85988997D01*
X134988998Y-87436201D01*
X134960000Y-87459999D01*
X134936202Y-87488997D01*
X134936201Y-87488998D01*
X134865026Y-87575724D01*
X134794454Y-87707754D01*
X134773306Y-87777472D01*
X134753972Y-87841212D01*
X134750998Y-87851015D01*
X134736324Y-88000000D01*
X131667095Y-88000000D01*
X131667095Y-87737314D01*
X131564600Y-87222037D01*
X131363549Y-86736657D01*
X131071668Y-86299826D01*
X130700174Y-85928332D01*
X130263343Y-85636451D01*
X129777963Y-85435400D01*
X129262686Y-85332905D01*
X128737314Y-85332905D01*
X128222037Y-85435400D01*
X127736657Y-85636451D01*
X127299826Y-85928332D01*
X126928332Y-86299826D01*
X126636451Y-86736657D01*
X126435400Y-87222037D01*
X126332905Y-87737314D01*
X126127000Y-87737314D01*
X126127000Y-80127000D01*
X169873000Y-80127000D01*
X169873000Y-103873000D01*
X169873000Y-103873000D01*
G37*
X169873000Y-103873000D02*
X126127000Y-103873000D01*
X126127000Y-87737314D01*
X126332905Y-87737314D01*
X126332905Y-88262686D01*
X126435400Y-88777963D01*
X126636451Y-89263343D01*
X126928332Y-89700174D01*
X127299826Y-90071668D01*
X127736657Y-90363549D01*
X128222037Y-90564600D01*
X128737314Y-90667095D01*
X129262686Y-90667095D01*
X129777963Y-90564600D01*
X130263343Y-90363549D01*
X130700174Y-90071668D01*
X131071668Y-89700174D01*
X131363549Y-89263343D01*
X131564600Y-88777963D01*
X131667095Y-88262686D01*
X131667095Y-88000000D01*
X134736324Y-88000000D01*
X134740001Y-88037332D01*
X134740000Y-96462678D01*
X134736324Y-96500000D01*
X134740000Y-96537322D01*
X134740000Y-96537332D01*
X134750997Y-96648985D01*
X134791574Y-96782752D01*
X134794454Y-96792246D01*
X134865026Y-96924276D01*
X134899280Y-96966014D01*
X134959999Y-97040001D01*
X134989002Y-97063803D01*
X135411952Y-97486755D01*
X135440025Y-97539275D01*
X135473448Y-97580001D01*
X135534998Y-97655000D01*
X135564002Y-97678803D01*
X138559203Y-100674005D01*
X138536487Y-100748889D01*
X138507815Y-101040000D01*
X138536487Y-101331111D01*
X138621401Y-101611034D01*
X138759294Y-101869014D01*
X138944866Y-102095134D01*
X139170986Y-102280706D01*
X139428966Y-102418599D01*
X139708889Y-102503513D01*
X139927050Y-102525000D01*
X140072950Y-102525000D01*
X140291111Y-102503513D01*
X140571034Y-102418599D01*
X140829014Y-102280706D01*
X141055134Y-102095134D01*
X141240706Y-101869014D01*
X141275201Y-101804477D01*
X141344822Y-101921355D01*
X141539731Y-102137588D01*
X141773080Y-102311641D01*
X142035901Y-102436825D01*
X142183110Y-102481476D01*
X142413000Y-102360155D01*
X142413000Y-101167000D01*
X142667000Y-101167000D01*
X142667000Y-102360155D01*
X142896890Y-102481476D01*
X143044099Y-102436825D01*
X143306920Y-102311641D01*
X143540269Y-102137588D01*
X143735178Y-101921355D01*
X143810000Y-101795745D01*
X143884822Y-101921355D01*
X144079731Y-102137588D01*
X144313080Y-102311641D01*
X144575901Y-102436825D01*
X144723110Y-102481476D01*
X144953000Y-102360155D01*
X144953000Y-101167000D01*
X142667000Y-101167000D01*
X142413000Y-101167000D01*
X142393000Y-101167000D01*
X142393000Y-100913000D01*
X142413000Y-100913000D01*
X142413000Y-100893000D01*
X142667000Y-100893000D01*
X142667000Y-100913000D01*
X144953000Y-100913000D01*
X144953000Y-100893000D01*
X145207000Y-100893000D01*
X145207000Y-100913000D01*
X145227000Y-100913000D01*
X145227000Y-101167000D01*
X145207000Y-101167000D01*
X145207000Y-102360155D01*
X145436890Y-102481476D01*
X145584099Y-102436825D01*
X145846920Y-102311641D01*
X146080269Y-102137588D01*
X146275178Y-101921355D01*
X146344799Y-101804477D01*
X146379294Y-101869014D01*
X146564866Y-102095134D01*
X146790986Y-102280706D01*
X147048966Y-102418599D01*
X147328889Y-102503513D01*
X147547050Y-102525000D01*
X147692950Y-102525000D01*
X147911111Y-102503513D01*
X148191034Y-102418599D01*
X148449014Y-102280706D01*
X148675134Y-102095134D01*
X148860706Y-101869014D01*
X148890000Y-101814209D01*
X148919294Y-101869014D01*
X149104866Y-102095134D01*
X149330986Y-102280706D01*
X149588966Y-102418599D01*
X149868889Y-102503513D01*
X150087050Y-102525000D01*
X150232950Y-102525000D01*
X150451111Y-102503513D01*
X150471742Y-102497255D01*
X151534116Y-103559629D01*
X151559483Y-103590539D01*
X151627221Y-103646130D01*
X151682821Y-103691760D01*
X151728297Y-103716067D01*
X151823538Y-103766974D01*
X151976223Y-103813291D01*
X152095220Y-103825011D01*
X152095222Y-103825011D01*
X152135010Y-103828930D01*
X152174798Y-103825011D01*
X156105455Y-103825011D01*
X156145243Y-103828930D01*
X156185031Y-103825011D01*
X156185034Y-103825011D01*
X156304031Y-103813291D01*
X156456716Y-103766974D01*
X156597432Y-103691760D01*
X156720771Y-103590539D01*
X156746143Y-103559623D01*
X161194629Y-99111138D01*
X161225538Y-99085772D01*
X161326759Y-98962433D01*
X161354071Y-98911336D01*
X161401973Y-98821718D01*
X161448290Y-98669032D01*
X161463929Y-98510244D01*
X161460010Y-98470453D01*
X161460010Y-87770546D01*
X161463283Y-87737314D01*
X164332905Y-87737314D01*
X164332905Y-88262686D01*
X164435400Y-88777963D01*
X164636451Y-89263343D01*
X164928332Y-89700174D01*
X165299826Y-90071668D01*
X165736657Y-90363549D01*
X166222037Y-90564600D01*
X166737314Y-90667095D01*
X167262686Y-90667095D01*
X167777963Y-90564600D01*
X168263343Y-90363549D01*
X168700174Y-90071668D01*
X169071668Y-89700174D01*
X169363549Y-89263343D01*
X169564600Y-88777963D01*
X169667095Y-88262686D01*
X169667095Y-87737314D01*
X169564600Y-87222037D01*
X169363549Y-86736657D01*
X169071668Y-86299826D01*
X168700174Y-85928332D01*
X168263343Y-85636451D01*
X167777963Y-85435400D01*
X167262686Y-85332905D01*
X166737314Y-85332905D01*
X166222037Y-85435400D01*
X165736657Y-85636451D01*
X165299826Y-85928332D01*
X164928332Y-86299826D01*
X164636451Y-86736657D01*
X164435400Y-87222037D01*
X164332905Y-87737314D01*
X161463283Y-87737314D01*
X161463929Y-87730758D01*
X161459770Y-87688528D01*
X161448290Y-87571970D01*
X161401973Y-87419285D01*
X161326759Y-87278569D01*
X161225538Y-87155230D01*
X161194628Y-87129863D01*
X158020152Y-83955388D01*
X157994780Y-83924472D01*
X157871441Y-83823251D01*
X157730725Y-83748037D01*
X157578040Y-83701720D01*
X157459043Y-83690000D01*
X157459040Y-83690000D01*
X157419252Y-83686081D01*
X157379464Y-83690000D01*
X153539788Y-83690000D01*
X153500000Y-83686081D01*
X153460212Y-83690000D01*
X153460209Y-83690000D01*
X153341212Y-83701720D01*
X153188527Y-83748037D01*
X153047811Y-83823251D01*
X152924472Y-83924472D01*
X152899100Y-83955388D01*
X152455388Y-84399100D01*
X152424472Y-84424472D01*
X152362489Y-84500000D01*
X152323251Y-84547811D01*
X152283049Y-84623025D01*
X152248037Y-84688528D01*
X152201720Y-84841213D01*
X152190790Y-84952189D01*
X152186081Y-85000000D01*
X152190000Y-85039789D01*
X152190000Y-85255230D01*
X152053368Y-85346525D01*
X151846525Y-85553368D01*
X151684010Y-85796589D01*
X151572068Y-86066842D01*
X151515000Y-86353740D01*
X151515000Y-86646260D01*
X151572068Y-86933158D01*
X151684010Y-87203411D01*
X151846525Y-87446632D01*
X152053368Y-87653475D01*
X152296589Y-87815990D01*
X152566842Y-87927932D01*
X152853740Y-87985000D01*
X153146260Y-87985000D01*
X153433158Y-87927932D01*
X153703411Y-87815990D01*
X153946632Y-87653475D01*
X154153475Y-87446632D01*
X154315990Y-87203411D01*
X154427932Y-86933158D01*
X154485000Y-86646260D01*
X154485000Y-86353740D01*
X154427932Y-86066842D01*
X154315990Y-85796589D01*
X154153475Y-85553368D01*
X153946632Y-85346525D01*
X153891968Y-85310000D01*
X155608032Y-85310000D01*
X155553368Y-85346525D01*
X155346525Y-85553368D01*
X155184010Y-85796589D01*
X155072068Y-86066842D01*
X155015000Y-86353740D01*
X155015000Y-86646260D01*
X155072068Y-86933158D01*
X155184010Y-87203411D01*
X155346525Y-87446632D01*
X155553368Y-87653475D01*
X155796589Y-87815990D01*
X156066842Y-87927932D01*
X156353740Y-87985000D01*
X156646260Y-87985000D01*
X156933158Y-87927932D01*
X157203411Y-87815990D01*
X157446632Y-87653475D01*
X157653475Y-87446632D01*
X157744770Y-87310000D01*
X158164488Y-87310000D01*
X159190000Y-88335513D01*
X159190000Y-88342094D01*
X158953411Y-88184010D01*
X158683158Y-88072068D01*
X158396260Y-88015000D01*
X158103740Y-88015000D01*
X157816842Y-88072068D01*
X157546589Y-88184010D01*
X157303368Y-88346525D01*
X157096525Y-88553368D01*
X156934010Y-88796589D01*
X156822068Y-89066842D01*
X156765000Y-89353740D01*
X156765000Y-89646260D01*
X156822068Y-89933158D01*
X156934010Y-90203411D01*
X157096525Y-90446632D01*
X157303368Y-90653475D01*
X157490001Y-90778179D01*
X157490000Y-95175198D01*
X155605996Y-97059203D01*
X155531111Y-97036487D01*
X155312950Y-97015000D01*
X155259802Y-97015000D01*
X155261004Y-97013798D01*
X155290001Y-96990001D01*
X155384974Y-96874276D01*
X155455546Y-96742247D01*
X155499003Y-96598986D01*
X155510000Y-96487333D01*
X155510000Y-96487323D01*
X155513676Y-96450000D01*
X155510000Y-96412677D01*
X155510000Y-90778178D01*
X155696632Y-90653475D01*
X155903475Y-90446632D01*
X156065990Y-90203411D01*
X156177932Y-89933158D01*
X156235000Y-89646260D01*
X156235000Y-89353740D01*
X156177932Y-89066842D01*
X156065990Y-88796589D01*
X155903475Y-88553368D01*
X155696632Y-88346525D01*
X155453411Y-88184010D01*
X155183158Y-88072068D01*
X154896260Y-88015000D01*
X154603740Y-88015000D01*
X154316842Y-88072068D01*
X154046589Y-88184010D01*
X153803368Y-88346525D01*
X153596525Y-88553368D01*
X153434010Y-88796589D01*
X153322068Y-89066842D01*
X153265000Y-89353740D01*
X153265000Y-89646260D01*
X153322068Y-89933158D01*
X153434010Y-90203411D01*
X153596525Y-90446632D01*
X153803368Y-90653475D01*
X153990001Y-90778179D01*
X153990000Y-96135198D01*
X153065996Y-97059203D01*
X152991111Y-97036487D01*
X152772950Y-97015000D01*
X152627050Y-97015000D01*
X152408889Y-97036487D01*
X152128966Y-97121401D01*
X152010000Y-97184990D01*
X152010000Y-90778178D01*
X152196632Y-90653475D01*
X152403475Y-90446632D01*
X152565990Y-90203411D01*
X152677932Y-89933158D01*
X152735000Y-89646260D01*
X152735000Y-89353740D01*
X152677932Y-89066842D01*
X152565990Y-88796589D01*
X152403475Y-88553368D01*
X152196632Y-88346525D01*
X151953411Y-88184010D01*
X151683158Y-88072068D01*
X151396260Y-88015000D01*
X151103740Y-88015000D01*
X150816842Y-88072068D01*
X150546589Y-88184010D01*
X150303368Y-88346525D01*
X150260000Y-88389893D01*
X150260000Y-87778178D01*
X150446632Y-87653475D01*
X150653475Y-87446632D01*
X150815990Y-87203411D01*
X150927932Y-86933158D01*
X150985000Y-86646260D01*
X150985000Y-86353740D01*
X150927932Y-86066842D01*
X150815990Y-85796589D01*
X150653475Y-85553368D01*
X150446632Y-85346525D01*
X150203411Y-85184010D01*
X149933158Y-85072068D01*
X149646260Y-85015000D01*
X149353740Y-85015000D01*
X149066842Y-85072068D01*
X148796589Y-85184010D01*
X148553368Y-85346525D01*
X148346525Y-85553368D01*
X148184010Y-85796589D01*
X148072068Y-86066842D01*
X148015000Y-86353740D01*
X148015000Y-86646260D01*
X148072068Y-86933158D01*
X148184010Y-87203411D01*
X148346525Y-87446632D01*
X148553368Y-87653475D01*
X148740001Y-87778179D01*
X148740000Y-88389893D01*
X148696632Y-88346525D01*
X148453411Y-88184010D01*
X148183158Y-88072068D01*
X147896260Y-88015000D01*
X147603740Y-88015000D01*
X147316842Y-88072068D01*
X147046589Y-88184010D01*
X146803368Y-88346525D01*
X146596525Y-88553368D01*
X146434010Y-88796589D01*
X146322068Y-89066842D01*
X146265000Y-89353740D01*
X146265000Y-89646260D01*
X146322068Y-89933158D01*
X146434010Y-90203411D01*
X146596525Y-90446632D01*
X146803368Y-90653475D01*
X146860001Y-90691316D01*
X146860000Y-97222405D01*
X146790986Y-97259294D01*
X146564866Y-97444866D01*
X146379294Y-97670986D01*
X146350000Y-97725791D01*
X146320706Y-97670986D01*
X146135134Y-97444866D01*
X145909014Y-97259294D01*
X145840000Y-97222405D01*
X145840000Y-90367322D01*
X145843676Y-90329999D01*
X145840000Y-90292676D01*
X145840000Y-90292667D01*
X145829003Y-90181014D01*
X145785546Y-90037753D01*
X145714974Y-89905724D01*
X145689551Y-89874746D01*
X145735000Y-89646260D01*
X145735000Y-89353740D01*
X145677932Y-89066842D01*
X145565990Y-88796589D01*
X145403475Y-88553368D01*
X145196632Y-88346525D01*
X144953411Y-88184010D01*
X144683158Y-88072068D01*
X144396260Y-88015000D01*
X144103740Y-88015000D01*
X143816842Y-88072068D01*
X143546589Y-88184010D01*
X143303368Y-88346525D01*
X143096525Y-88553368D01*
X142934010Y-88796589D01*
X142822068Y-89066842D01*
X142765000Y-89353740D01*
X142765000Y-89646260D01*
X142822068Y-89933158D01*
X142934010Y-90203411D01*
X143096525Y-90446632D01*
X143303368Y-90653475D01*
X143546589Y-90815990D01*
X143816842Y-90927932D01*
X144103740Y-90985000D01*
X144320001Y-90985000D01*
X144320000Y-97222405D01*
X144250986Y-97259294D01*
X144024866Y-97444866D01*
X143839294Y-97670986D01*
X143810000Y-97725791D01*
X143780706Y-97670986D01*
X143595134Y-97444866D01*
X143369014Y-97259294D01*
X143300000Y-97222405D01*
X143300000Y-97077322D01*
X143303676Y-97039999D01*
X143300000Y-97002676D01*
X143300000Y-97002667D01*
X143289003Y-96891014D01*
X143245546Y-96747753D01*
X143174974Y-96615724D01*
X143080001Y-96499999D01*
X143051003Y-96476201D01*
X140260000Y-93685199D01*
X140260000Y-91064801D01*
X140383592Y-90941209D01*
X140603740Y-90985000D01*
X140896260Y-90985000D01*
X141183158Y-90927932D01*
X141453411Y-90815990D01*
X141696632Y-90653475D01*
X141903475Y-90446632D01*
X142065990Y-90203411D01*
X142177932Y-89933158D01*
X142235000Y-89646260D01*
X142235000Y-89353740D01*
X142177932Y-89066842D01*
X142065990Y-88796589D01*
X141903475Y-88553368D01*
X141696632Y-88346525D01*
X141453411Y-88184010D01*
X141183158Y-88072068D01*
X140896260Y-88015000D01*
X140603740Y-88015000D01*
X140316842Y-88072068D01*
X140046589Y-88184010D01*
X139803368Y-88346525D01*
X139596525Y-88553368D01*
X139434010Y-88796589D01*
X139322068Y-89066842D01*
X139265000Y-89353740D01*
X139265000Y-89646260D01*
X139308791Y-89866408D01*
X138988998Y-90186201D01*
X138960000Y-90209999D01*
X138936202Y-90238997D01*
X138936201Y-90238998D01*
X138865026Y-90325724D01*
X138794454Y-90457754D01*
X138750998Y-90601015D01*
X138736324Y-90750000D01*
X138740001Y-90787332D01*
X138740000Y-93962677D01*
X138736324Y-94000000D01*
X138740000Y-94037322D01*
X138740000Y-94037332D01*
X138750997Y-94148985D01*
X138794454Y-94292246D01*
X138865026Y-94424276D01*
X138904871Y-94472826D01*
X138959999Y-94540001D01*
X138989003Y-94563804D01*
X141696434Y-97271236D01*
X141484866Y-97444866D01*
X141460393Y-97474687D01*
X141439502Y-97405820D01*
X141380537Y-97295506D01*
X141301185Y-97198815D01*
X141204494Y-97119463D01*
X141094180Y-97060498D01*
X140974482Y-97024188D01*
X140850000Y-97011928D01*
X139150000Y-97011928D01*
X139025518Y-97024188D01*
X138905820Y-97060498D01*
X138795506Y-97119463D01*
X138698815Y-97198815D01*
X138687457Y-97212655D01*
X138010000Y-96535199D01*
X138010000Y-90778178D01*
X138196632Y-90653475D01*
X138403475Y-90446632D01*
X138565990Y-90203411D01*
X138677932Y-89933158D01*
X138735000Y-89646260D01*
X138735000Y-89353740D01*
X138677932Y-89066842D01*
X138565990Y-88796589D01*
X138403475Y-88553368D01*
X138196632Y-88346525D01*
X137953411Y-88184010D01*
X137683158Y-88072068D01*
X137396260Y-88015000D01*
X137103740Y-88015000D01*
X136816842Y-88072068D01*
X136546589Y-88184010D01*
X136303368Y-88346525D01*
X136260000Y-88389893D01*
X136260000Y-88314801D01*
X137314802Y-87260000D01*
X137721822Y-87260000D01*
X137846525Y-87446632D01*
X138053368Y-87653475D01*
X138296589Y-87815990D01*
X138566842Y-87927932D01*
X138853740Y-87985000D01*
X139146260Y-87985000D01*
X139433158Y-87927932D01*
X139703411Y-87815990D01*
X139946632Y-87653475D01*
X140071710Y-87528397D01*
X141651208Y-87528397D01*
X141728843Y-87777472D01*
X141992883Y-87903371D01*
X142276411Y-87975339D01*
X142568531Y-87990611D01*
X142858019Y-87948599D01*
X143133747Y-87850919D01*
X143271157Y-87777472D01*
X143348792Y-87528397D01*
X145151208Y-87528397D01*
X145228843Y-87777472D01*
X145492883Y-87903371D01*
X145776411Y-87975339D01*
X146068531Y-87990611D01*
X146358019Y-87948599D01*
X146633747Y-87850919D01*
X146771157Y-87777472D01*
X146848792Y-87528397D01*
X146000000Y-86679605D01*
X145151208Y-87528397D01*
X143348792Y-87528397D01*
X142500000Y-86679605D01*
X141651208Y-87528397D01*
X140071710Y-87528397D01*
X140153475Y-87446632D01*
X140315990Y-87203411D01*
X140427932Y-86933158D01*
X140485000Y-86646260D01*
X140485000Y-86568531D01*
X141009389Y-86568531D01*
X141051401Y-86858019D01*
X141149081Y-87133747D01*
X141222528Y-87271157D01*
X141471603Y-87348792D01*
X142320395Y-86500000D01*
X142679605Y-86500000D01*
X143528397Y-87348792D01*
X143777472Y-87271157D01*
X143903371Y-87007117D01*
X143975339Y-86723589D01*
X143983445Y-86568531D01*
X144509389Y-86568531D01*
X144551401Y-86858019D01*
X144649081Y-87133747D01*
X144722528Y-87271157D01*
X144971603Y-87348792D01*
X145820395Y-86500000D01*
X146179605Y-86500000D01*
X147028397Y-87348792D01*
X147277472Y-87271157D01*
X147403371Y-87007117D01*
X147475339Y-86723589D01*
X147490611Y-86431469D01*
X147448599Y-86141981D01*
X147350919Y-85866253D01*
X147277472Y-85728843D01*
X147028397Y-85651208D01*
X146179605Y-86500000D01*
X145820395Y-86500000D01*
X144971603Y-85651208D01*
X144722528Y-85728843D01*
X144596629Y-85992883D01*
X144524661Y-86276411D01*
X144509389Y-86568531D01*
X143983445Y-86568531D01*
X143990611Y-86431469D01*
X143948599Y-86141981D01*
X143850919Y-85866253D01*
X143777472Y-85728843D01*
X143528397Y-85651208D01*
X142679605Y-86500000D01*
X142320395Y-86500000D01*
X141471603Y-85651208D01*
X141222528Y-85728843D01*
X141096629Y-85992883D01*
X141024661Y-86276411D01*
X141009389Y-86568531D01*
X140485000Y-86568531D01*
X140485000Y-86353740D01*
X140427932Y-86066842D01*
X140315990Y-85796589D01*
X140153475Y-85553368D01*
X140071710Y-85471603D01*
X141651208Y-85471603D01*
X142500000Y-86320395D01*
X143348792Y-85471603D01*
X145151208Y-85471603D01*
X146000000Y-86320395D01*
X146848792Y-85471603D01*
X146771157Y-85222528D01*
X146507117Y-85096629D01*
X146223589Y-85024661D01*
X145931469Y-85009389D01*
X145641981Y-85051401D01*
X145366253Y-85149081D01*
X145228843Y-85222528D01*
X145151208Y-85471603D01*
X143348792Y-85471603D01*
X143271157Y-85222528D01*
X143007117Y-85096629D01*
X142723589Y-85024661D01*
X142431469Y-85009389D01*
X142141981Y-85051401D01*
X141866253Y-85149081D01*
X141728843Y-85222528D01*
X141651208Y-85471603D01*
X140071710Y-85471603D01*
X139946632Y-85346525D01*
X139703411Y-85184010D01*
X139433158Y-85072068D01*
X139146260Y-85015000D01*
X138853740Y-85015000D01*
X138566842Y-85072068D01*
X138296589Y-85184010D01*
X138053368Y-85346525D01*
X137846525Y-85553368D01*
X137721822Y-85740000D01*
X137037322Y-85740000D01*
X136999999Y-85736324D01*
X136962676Y-85740000D01*
X136962667Y-85740000D01*
X136851014Y-85750997D01*
X136707753Y-85794454D01*
X136575724Y-85865026D01*
X136459999Y-85959999D01*
X136436201Y-85988997D01*
X134988998Y-87436201D01*
X134960000Y-87459999D01*
X134936202Y-87488997D01*
X134936201Y-87488998D01*
X134865026Y-87575724D01*
X134794454Y-87707754D01*
X134773306Y-87777472D01*
X134753972Y-87841212D01*
X134750998Y-87851015D01*
X134736324Y-88000000D01*
X131667095Y-88000000D01*
X131667095Y-87737314D01*
X131564600Y-87222037D01*
X131363549Y-86736657D01*
X131071668Y-86299826D01*
X130700174Y-85928332D01*
X130263343Y-85636451D01*
X129777963Y-85435400D01*
X129262686Y-85332905D01*
X128737314Y-85332905D01*
X128222037Y-85435400D01*
X127736657Y-85636451D01*
X127299826Y-85928332D01*
X126928332Y-86299826D01*
X126636451Y-86736657D01*
X126435400Y-87222037D01*
X126332905Y-87737314D01*
X126127000Y-87737314D01*
X126127000Y-80127000D01*
X169873000Y-80127000D01*
X169873000Y-103873000D01*
G36*
X143839294Y-99329014D02*
G01*
X144024866Y-99555134D01*
X144250986Y-99740706D01*
X144308756Y-99771584D01*
X144079731Y-99942412D01*
X143884822Y-100158645D01*
X143810000Y-100284255D01*
X143735178Y-100158645D01*
X143540269Y-99942412D01*
X143311244Y-99771584D01*
X143369014Y-99740706D01*
X143595134Y-99555134D01*
X143780706Y-99329014D01*
X143810000Y-99274209D01*
X143839294Y-99329014D01*
X143839294Y-99329014D01*
G37*
X143839294Y-99329014D02*
X144024866Y-99555134D01*
X144250986Y-99740706D01*
X144308756Y-99771584D01*
X144079731Y-99942412D01*
X143884822Y-100158645D01*
X143810000Y-100284255D01*
X143735178Y-100158645D01*
X143540269Y-99942412D01*
X143311244Y-99771584D01*
X143369014Y-99740706D01*
X143595134Y-99555134D01*
X143780706Y-99329014D01*
X143810000Y-99274209D01*
X143839294Y-99329014D01*
M02*
